<svg width="538" height="214" viewBox="0 0 538 214" fill="none" xmlns="http://www.w3.org/2000/svg">
<g filter="url(#filter0_d_41_3287)">
<path d="M122.575 90.4614C89.4752 92.3795 51.2052 78.6579 36.9852 71.9844L39.7152 121.514L4.11523 161.18C7.66523 162.871 22.2452 169.568 42.9252 175.764C55.7452 179.601 70.9152 183.244 87.2452 185.377C98.7852 153.633 112.565 122.842 122.575 90.4614Z" fill="#0082A0"/>
<path d="M97.5251 89.3491C92.2451 102.787 86.5751 116.009 80.1351 128.823C78.6151 131.842 71.1151 163.688 68.7451 163.541C74.8351 178.5 84.9651 185.071 87.2451 185.366C98.7851 153.621 112.565 122.83 122.575 90.45C114.395 90.938 105.895 90.4387 97.5251 89.3491Z" fill="#0D325C"/>
<path d="M512.455 81.5748C486.875 69.2039 464.065 58.1835 440.395 49.9551L406.555 136.904C426.185 143.679 454.945 158.854 479.065 170.521C486.065 173.903 493.355 177.433 500.995 181.053L494.015 120.209L533.885 91.8575C526.415 88.3278 519.295 84.8889 512.455 81.5748Z" fill="#0082A0"/>
<path d="M466.795 105.727C467.035 104.841 478.055 85.7742 478.445 85.1159C464.255 71.0992 441.025 50.1821 440.395 49.9551L406.555 136.904C419.515 141.375 436.445 149.513 453.405 157.878C457.665 140.445 462.135 123.046 466.795 105.727Z" fill="#0D325C"/>
<path d="M105.895 176.082C86.1254 170.975 72.1554 165.05 68.7554 163.552L83.6054 118.256L98.3354 72.9715C114.865 80.1558 165.195 95.8522 199.045 82.4143C326.345 31.8863 378.465 50.1477 457.355 77.7837C464.095 80.1444 471.105 82.5959 478.455 85.1155L454.445 177.864C446.925 175.287 439.755 172.779 432.865 170.362C359.535 144.678 326.065 132.954 223.025 173.846C182.105 190.087 136.885 184.095 105.895 176.082Z" fill="#00B1F1"/>
<path d="M289.795 147.788C291.355 148.673 291.295 151.124 290.395 152.554C285.715 159.841 282.415 167.604 279.655 175.98C276.895 184.424 274.555 195.115 276.415 204.115C276.655 205.205 274.915 206.635 274.315 205.409C270.415 197.714 271.255 188.385 272.995 179.941C271.915 181.711 270.835 183.482 269.755 185.252C268.315 187.5 266.935 189.815 265.435 191.994C263.935 194.173 262.495 196.761 259.975 197.51C257.215 198.327 255.355 195.535 255.535 192.607C255.655 190.292 256.435 187.908 257.155 185.797C258.715 181.235 260.875 176.945 263.755 173.267C265.375 171.224 267.295 169.182 269.695 168.569C271.855 168.024 274.195 168.909 275.575 170.884C277.975 163.461 281.455 156.447 285.535 150.046C286.435 148.616 288.355 146.914 290.035 147.867L289.795 147.788ZM268.305 182.109C269.145 180.951 269.985 179.725 270.825 178.499C270.705 178.295 270.585 178.091 270.465 177.887C270.045 177.138 269.865 176.525 269.205 175.98C269.385 176.116 268.785 175.776 268.725 175.707C268.665 175.776 268.545 175.912 268.485 175.98C268.425 176.048 268.365 176.116 268.305 176.184C267.945 176.593 267.645 177.001 267.345 177.41C267.165 177.682 266.985 177.955 266.805 178.227C266.745 178.295 266.745 178.295 266.745 178.363C266.445 178.772 266.145 179.18 265.905 179.589C265.365 180.474 264.885 181.36 264.405 182.313C264.405 182.381 264.225 182.721 264.165 182.858C264.105 182.994 263.985 183.266 263.985 183.334C263.805 183.811 263.625 184.288 263.445 184.764C263.085 185.718 262.785 186.671 262.485 187.624C262.125 188.782 261.645 189.94 261.405 191.097C261.405 191.097 261.405 191.166 261.405 191.234C261.645 190.961 261.885 190.689 262.125 190.416C262.845 189.531 263.565 188.646 264.225 187.761C265.665 185.854 267.045 183.947 268.425 182.041L268.305 182.109ZM266.745 178.295C266.565 178.568 266.685 178.431 266.805 178.295H266.745Z" fill="white"/>
<path d="M303.235 173.937C303.895 172.848 305.875 172.848 305.275 174.55C302.995 180.951 299.575 187.352 295.375 192.391C293.515 194.639 291.295 196.682 288.715 197.635C286.075 198.588 282.775 198.656 280.855 195.932C278.995 193.277 278.935 189.668 279.475 186.467C279.955 183.607 280.735 180.815 281.875 178.227C283.135 175.299 284.695 172.643 286.615 170.192C288.475 167.808 290.755 165.425 293.455 164.472C294.895 163.927 296.515 163.723 297.895 164.54C299.155 165.289 300.175 167.059 300.415 168.626C300.535 169.306 300.535 169.987 300.475 170.668C300.475 170.737 300.475 170.805 300.475 170.873C300.475 170.941 300.475 171.009 300.475 171.077C300.415 171.554 300.355 172.03 300.235 172.439C299.755 174.686 299.035 176.797 297.895 178.772C296.815 180.679 295.495 182.449 293.755 183.607C292.015 184.765 290.035 185.309 288.115 184.356C287.515 184.015 286.915 183.539 286.495 182.926C286.435 182.858 286.435 182.79 286.375 182.722C285.595 185.377 284.515 190.621 287.755 191.779C289.195 192.255 290.815 191.302 291.955 190.348C293.455 189.123 294.715 187.42 295.915 185.786C298.675 182.109 301.075 178.091 303.355 174.005L303.235 173.937ZM287.695 179.521C287.935 179.725 288.235 179.793 288.535 179.93C288.835 180.066 289.075 180.202 289.375 180.27C289.495 180.27 289.615 180.27 289.735 180.27C289.795 180.27 289.795 180.27 289.855 180.27C289.795 180.27 289.675 180.338 289.915 180.27C289.975 180.27 289.975 180.27 289.915 180.27C289.975 180.27 289.975 180.27 290.035 180.27C290.275 180.134 290.515 179.998 290.755 179.862C290.875 179.793 290.995 179.725 291.115 179.589C290.995 179.657 290.875 179.725 290.755 179.793C290.875 179.725 291.115 179.385 291.235 179.249C291.295 179.112 291.475 178.84 291.535 178.772C292.015 178.023 292.435 177.274 292.855 176.457C292.855 176.389 292.855 176.32 292.855 176.252C293.335 175.163 293.395 175.027 293.035 175.844C293.035 175.776 293.035 175.708 293.035 175.64C293.095 175.435 293.155 175.231 293.215 175.027C293.335 174.482 293.515 173.937 293.635 173.392C293.635 173.392 293.815 172.439 293.815 172.303C293.755 172.167 293.695 172.03 293.695 172.03C293.635 171.894 293.515 171.758 293.395 171.622C293.335 171.622 293.275 171.622 293.275 171.622C292.675 171.894 291.955 172.575 291.475 173.12C290.815 173.869 290.215 174.618 289.615 175.435C289.495 175.64 289.375 175.844 289.255 176.048C289.015 176.457 288.775 176.865 288.535 177.274C288.295 177.751 288.055 178.227 287.815 178.704C287.695 178.908 287.575 179.112 287.455 179.317L287.695 179.521Z" fill="white"/>
<path d="M346.385 157.458C347.105 159.024 345.965 161.271 344.765 162.088C343.865 162.701 343.085 163.178 342.005 163.11C341.465 163.11 340.925 162.973 340.385 162.905C339.305 162.701 338.225 162.429 337.145 162.224C335.825 161.952 334.505 161.748 333.185 161.611C331.025 166.174 329.165 170.941 327.545 175.912C324.785 184.356 322.445 195.047 324.305 204.047C324.545 205.137 322.805 206.567 322.205 205.341C317.825 196.693 319.445 185.933 321.605 176.729C322.865 171.486 324.665 166.446 326.885 161.611C326.345 161.68 325.805 161.748 325.265 161.884C323.585 162.224 321.665 162.769 320.105 163.586C319.085 164.131 318.725 162.633 319.385 161.952C321.065 160.181 322.685 158.888 324.845 157.934C326.345 157.253 327.905 156.777 329.465 156.368C330.665 154.189 331.925 152.078 333.245 150.035C334.145 148.605 336.065 146.903 337.745 147.856C339.305 148.741 339.245 151.193 338.345 152.623C337.745 153.576 337.145 154.529 336.605 155.483C337.325 155.483 338.045 155.483 338.765 155.483C340.025 155.483 341.285 155.483 342.545 155.619C344.045 155.755 345.485 155.823 346.265 157.526L346.385 157.458Z" fill="white"/>
<path d="M358.865 174.21C359.165 173.869 359.945 173.529 360.005 174.346C360.125 175.504 359.405 176.661 358.985 177.683C358.505 178.772 358.085 179.862 357.545 180.883C356.465 183.062 355.265 185.173 354.065 187.284C351.965 191.098 349.445 194.434 345.725 196.273C343.445 197.363 340.925 196.818 339.665 194.162C339.185 193.141 339.065 191.915 339.065 190.689C338.045 192.323 336.905 193.822 335.525 195.047C333.905 196.477 331.205 197.907 329.105 197.022C327.005 196.137 326.825 193.549 326.825 191.37C326.825 187.148 327.665 183.062 328.985 179.113C330.005 176.048 331.265 172.916 333.005 170.26C333.965 168.83 335.765 167.196 337.505 168.081C339.065 168.898 339.005 171.418 338.105 172.78C337.385 173.801 336.785 174.959 336.245 176.116C336.185 176.253 336.125 176.389 336.065 176.525C335.945 176.865 335.825 177.206 335.705 177.546C335.405 178.295 335.165 179.045 334.925 179.794C333.965 182.79 333.485 185.037 333.305 188.51C333.305 188.578 333.305 188.714 333.305 188.782C333.305 188.919 333.305 189.055 333.305 189.191C333.305 189.532 333.305 189.872 333.305 190.212C333.365 190.212 333.425 190.212 333.425 190.212C333.605 190.212 334.325 190.008 334.505 189.872C334.925 189.6 335.465 189.055 335.885 188.578C338.045 185.99 339.665 182.654 341.165 179.521C341.225 179.385 341.285 179.249 341.345 179.113C341.345 179.045 341.345 178.976 341.345 178.908C342.485 175.299 343.805 171.758 345.485 168.49C346.325 166.923 348.425 165.425 350.045 166.242C351.725 167.128 351.365 169.511 350.585 171.009C350.405 171.35 350.225 171.758 350.045 172.167C349.985 172.303 349.925 172.439 349.865 172.575C349.565 173.324 349.265 174.073 348.965 174.823C348.365 176.389 347.825 178.023 347.345 179.657C346.925 181.019 346.505 182.381 346.145 183.811C346.085 184.084 345.905 185.037 346.085 184.22C346.025 184.492 345.965 184.765 345.905 185.037C345.785 185.582 345.665 186.127 345.605 186.671C345.545 187.08 345.485 187.489 345.425 187.897C345.425 187.965 345.425 187.965 345.425 187.965C345.425 188.033 345.425 188.101 345.425 188.238C345.425 188.374 345.425 188.51 345.425 188.646C345.425 188.714 345.425 188.782 345.425 188.782C345.425 188.782 345.485 188.987 345.545 189.123C345.545 189.055 345.725 189.259 345.665 189.259C345.725 189.327 345.785 189.395 345.785 189.395C345.965 189.463 346.145 189.532 346.325 189.6C345.965 189.463 346.505 189.532 346.745 189.6C346.805 189.6 346.865 189.6 346.925 189.6C348.065 189.055 348.905 188.17 349.865 187.08C350.945 185.786 351.965 184.356 352.985 182.926C354.005 181.496 354.965 179.998 355.985 178.5C356.525 177.751 357.005 177.002 357.425 176.184C357.845 175.367 358.145 174.482 358.745 173.869L358.865 174.21Z" fill="white"/>
<path d="M403.575 172.575C404.415 172.167 404.355 173.324 403.875 173.733C401.115 176.252 397.695 177.274 394.155 176.933C393.975 176.933 393.795 176.933 393.615 176.933C393.495 177.274 393.375 177.614 393.255 177.955C391.875 181.632 390.255 185.241 388.515 188.714C386.835 192.051 384.795 195.456 381.615 197.09C380.055 197.907 377.955 198.52 376.275 197.635C374.715 196.818 374.055 194.979 373.635 193.209C372.795 189.463 373.395 185.173 374.235 181.496C374.655 179.521 375.195 177.614 375.915 175.776C376.815 173.597 377.715 171.349 379.575 170.056C380.655 169.307 383.355 168.83 383.355 171.281C383.355 173.188 382.695 174.482 381.975 176.184C381.435 177.478 381.015 178.84 380.655 180.202C379.995 182.654 379.575 185.446 379.695 188.033C379.695 188.578 379.815 190.553 380.115 190.825C380.235 190.893 380.835 190.485 380.835 190.485C382.335 189.531 383.355 188.033 384.435 186.331C385.875 184.084 387.195 181.7 388.275 179.249C388.755 178.227 389.235 177.138 389.655 176.048C388.155 175.163 386.895 173.801 386.295 171.758C385.335 168.421 386.355 164.608 388.935 162.633C390.195 161.612 391.935 161.203 393.315 162.02C394.635 162.837 394.995 164.608 395.175 166.174C395.475 168.557 395.175 171.009 394.575 173.392C395.355 173.529 396.135 173.597 396.855 173.665C399.015 173.869 401.235 173.801 403.275 172.916L403.575 172.575ZM391.325 170.668C391.505 169.443 391.565 168.149 391.265 166.923C391.205 166.583 390.905 166.242 390.845 165.97C390.845 166.242 390.545 166.855 390.485 167.127C390.425 167.604 390.425 168.013 390.485 168.489C390.605 169.307 390.905 170.124 391.325 170.805V170.668ZM390.845 165.97C390.965 165.902 390.785 165.765 390.785 166.038L390.845 165.97Z" fill="white"/>
<path d="M416.835 174.141C417.135 173.801 417.975 173.46 418.035 174.277C418.155 175.367 417.555 176.388 417.135 177.342C416.715 178.295 416.355 179.248 415.935 180.202C414.975 182.245 413.895 184.151 412.815 186.058C411.075 189.259 409.215 192.391 406.455 194.57C404.955 195.728 402.915 196.886 401.055 196.749C398.895 196.613 397.515 194.638 397.095 192.391C396.735 190.485 396.975 188.305 397.275 186.399C397.635 184.22 398.235 182.109 399.015 180.066C400.515 176.116 402.495 172.371 404.595 168.83C405.495 167.331 407.415 165.765 409.095 166.582C410.715 167.4 410.475 169.851 409.635 171.281C408.555 173.12 407.535 174.958 406.575 176.865C405.615 178.84 405.135 179.793 404.355 182.109C403.695 184.151 403.395 185.513 403.275 187.829C403.275 188.305 403.275 188.373 403.275 187.965C403.275 188.169 403.275 188.373 403.275 188.578C403.335 188.782 403.335 188.85 403.335 188.85C403.395 188.986 403.455 189.123 403.515 189.259C403.515 189.259 403.515 189.259 403.575 189.327C403.635 189.327 403.635 189.327 403.695 189.395C403.815 189.463 404.415 189.667 404.475 189.804C404.595 189.735 405.135 189.531 405.195 189.463C405.495 189.259 406.275 188.646 406.575 188.373C407.835 187.148 408.915 185.65 409.935 184.22C411.135 182.585 412.275 180.883 413.415 179.18C414.015 178.295 414.615 177.41 415.095 176.457C415.575 175.571 415.935 174.55 416.655 173.869L416.835 174.141ZM409.515 163.722C409.395 163.45 409.455 164.063 409.335 162.973C409.275 162.701 409.275 162.36 409.275 162.088C409.335 161.271 409.755 160.59 410.115 159.909C410.235 159.705 410.355 159.5 410.475 159.296C410.595 159.092 410.715 158.887 410.835 158.683C411.195 158.07 411.615 157.594 412.155 157.185C412.395 157.049 412.635 156.913 412.875 156.776C413.235 156.572 413.595 156.504 414.015 156.504C414.375 156.436 414.735 156.504 415.095 156.708L415.635 157.117C415.995 157.526 416.175 158.002 416.235 158.547C416.235 158.819 416.235 159.092 416.235 159.364C416.175 159.841 416.055 160.317 415.815 160.726C415.635 161.203 415.395 161.611 415.035 161.952C414.915 162.156 414.795 162.36 414.675 162.565C414.615 162.633 414.555 162.701 414.495 162.769C414.195 163.109 413.955 163.314 413.595 163.654C413.475 163.79 413.355 163.927 413.235 164.063C412.935 164.335 412.635 164.471 412.335 164.608C411.915 164.744 411.375 164.948 410.895 164.812C410.475 164.744 410.115 164.54 409.815 164.199C409.695 164.063 409.575 163.859 409.455 163.654L409.515 163.722Z" fill="white"/>
<path d="M442.755 147.788C444.315 148.673 444.255 151.124 443.355 152.554C438.675 159.841 435.375 167.604 432.615 175.98C429.855 184.424 427.515 195.115 429.375 204.115C429.615 205.205 427.875 206.635 427.275 205.409C423.375 197.714 424.215 188.385 425.955 179.941C424.875 181.711 423.795 183.482 422.715 185.252C421.275 187.5 419.895 189.815 418.395 191.994C416.895 194.173 415.455 196.761 412.935 197.51C410.175 198.327 408.315 195.535 408.495 192.607C408.615 190.292 409.395 187.908 410.115 185.797C411.675 181.235 413.835 176.945 416.715 173.267C418.335 171.224 420.255 169.182 422.655 168.569C424.815 168.024 427.155 168.909 428.535 170.884C430.935 163.461 434.415 156.447 438.495 150.046C439.395 148.616 441.315 146.914 442.995 147.867L442.755 147.788ZM421.275 182.109C422.115 180.951 422.955 179.725 423.795 178.499C423.675 178.295 423.555 178.091 423.435 177.887C423.015 177.138 422.835 176.525 422.175 175.98C422.355 176.116 421.755 175.776 421.695 175.707C421.635 175.776 421.515 175.912 421.455 175.98C421.395 176.048 421.335 176.116 421.275 176.184C420.915 176.593 420.615 177.001 420.315 177.41C420.135 177.682 419.955 177.955 419.775 178.227C419.715 178.295 419.715 178.295 419.715 178.363C419.415 178.772 419.115 179.18 418.875 179.589C418.335 180.474 417.855 181.36 417.375 182.313C417.375 182.381 417.195 182.721 417.135 182.858C417.075 182.994 416.955 183.266 416.955 183.334C416.775 183.811 416.595 184.288 416.415 184.764C416.055 185.718 415.755 186.671 415.455 187.624C415.095 188.782 414.615 189.94 414.375 191.097C414.375 191.097 414.375 191.166 414.375 191.234C414.615 190.961 414.855 190.689 415.095 190.416C415.815 189.531 416.535 188.646 417.195 187.761C418.635 185.854 420.015 183.947 421.395 182.041L421.275 182.109ZM419.715 178.295C419.535 178.568 419.655 178.431 419.775 178.295H419.715Z" fill="white"/>
<path d="M464.125 174.277C464.425 173.937 465.205 173.596 465.265 174.414C465.385 175.435 464.845 176.388 464.425 177.274C464.005 178.227 463.645 179.18 463.225 180.066C462.325 182.04 461.245 183.947 460.225 185.854C458.425 189.122 456.625 192.323 453.865 194.638C453.085 195.251 452.245 195.796 451.405 196.205C451.525 196.136 452.005 195.796 451.225 196.273C450.865 196.477 450.565 196.613 450.205 196.749C449.665 196.954 449.065 197.022 448.465 197.022C446.305 196.886 444.865 195.047 444.385 192.8C444.025 190.893 444.265 188.714 444.565 186.807C444.625 186.331 444.745 185.854 444.865 185.377C444.805 185.445 444.745 185.513 444.685 185.581C443.245 187.829 441.865 190.144 440.365 192.323C438.865 194.502 437.425 197.09 434.905 197.839C432.145 198.656 430.285 195.864 430.465 192.936C430.585 190.621 431.365 188.237 432.085 186.126C433.645 181.564 435.805 177.274 438.685 173.596C440.305 171.553 442.225 169.511 444.625 168.898C446.785 168.353 449.125 169.238 450.505 171.213C450.565 171.349 450.625 171.485 450.685 171.622C451.045 170.941 451.405 170.26 451.825 169.579C452.725 168.08 454.645 166.514 456.325 167.331C457.945 168.149 457.765 170.6 456.925 172.03C455.905 173.801 454.825 175.571 453.865 177.41C452.905 179.317 452.425 180.27 451.705 182.517C451.525 182.994 451.405 183.47 451.285 183.947C451.225 184.151 451.225 184.219 451.225 184.288C451.165 184.492 451.105 184.696 451.045 184.9C450.865 185.922 450.745 186.943 450.685 187.965C450.685 188.442 450.685 188.51 450.685 188.101C450.685 188.305 450.685 188.51 450.685 188.714C450.745 188.918 450.745 189.054 450.745 189.054C450.805 189.191 450.865 189.327 450.925 189.463C450.925 189.463 450.925 189.463 450.985 189.531C451.045 189.531 451.045 189.531 451.105 189.599C451.285 189.667 451.465 189.735 451.645 189.803C451.225 189.667 451.345 189.735 452.005 189.94C452.305 189.803 452.605 189.599 452.845 189.395C453.085 189.259 453.925 188.51 454.225 188.237C455.485 186.943 456.565 185.445 457.645 183.947C458.785 182.313 459.925 180.678 461.005 179.044C461.545 178.159 462.145 177.342 462.625 176.456C463.105 175.571 463.465 174.55 464.125 173.869V174.277ZM443.475 182.517C444.315 181.359 445.155 180.134 445.995 178.908C445.875 178.704 445.755 178.499 445.635 178.295C445.215 177.546 445.035 176.933 444.375 176.388C444.555 176.525 443.955 176.184 443.895 176.116C443.835 176.184 443.715 176.32 443.655 176.388C443.595 176.456 443.535 176.525 443.475 176.593C443.115 177.001 442.815 177.41 442.515 177.818C442.335 178.091 442.155 178.363 441.975 178.636C441.915 178.704 441.915 178.704 441.915 178.772C441.615 179.18 441.315 179.589 441.075 179.997C440.535 180.883 440.055 181.768 439.575 182.721C439.575 182.789 439.395 183.13 439.335 183.266C439.275 183.402 439.155 183.675 439.155 183.743C438.975 184.219 438.795 184.696 438.615 185.173C438.255 186.126 437.955 187.08 437.655 188.033C437.295 189.191 436.815 190.348 436.575 191.506C436.575 191.506 436.575 191.574 436.575 191.642C436.815 191.37 437.055 191.097 437.295 190.825C438.015 189.94 438.735 189.054 439.395 188.169C440.835 186.262 442.215 184.356 443.595 182.449L443.475 182.517ZM441.915 178.704C441.735 178.976 441.855 178.84 441.975 178.704H441.915Z" fill="white"/>
<path d="M135.295 161.668C134.735 161.623 133.835 161.498 132.585 161.305C131.335 161.112 129.925 160.885 128.365 160.613C126.805 160.34 125.165 160.057 123.445 159.727C121.725 159.41 120.115 159.126 118.615 158.865C117.115 158.604 115.785 158.366 114.645 158.15C113.505 157.934 112.725 157.787 112.335 157.719C112.495 156.833 112.725 155.233 113.035 152.952C113.345 150.659 113.685 148.003 114.075 144.962C114.465 141.92 114.875 138.697 115.315 135.258C115.755 131.819 116.165 128.516 116.545 125.338C116.925 122.172 117.285 119.289 117.605 116.701C117.925 114.114 118.155 112.173 118.295 110.856L129.565 112.797C129.455 113.331 129.265 114.273 129.005 115.623C128.745 116.985 128.425 118.608 128.045 120.526C127.665 122.433 127.245 124.544 126.775 126.848C126.305 129.152 125.815 131.535 125.305 133.998C124.795 136.461 124.295 138.924 123.805 141.387C123.315 143.849 122.845 146.165 122.395 148.344C123.605 148.412 124.895 148.514 126.275 148.628C127.655 148.752 129.005 148.866 130.325 148.979C131.645 149.093 132.875 149.184 134.015 149.275C135.155 149.354 136.125 149.422 136.935 149.468L135.295 161.668Z" fill="white"/>
<path d="M165.565 165.209C165.465 164.903 165.315 164.245 165.105 163.235C164.895 162.224 164.655 161.067 164.365 159.75C164.075 158.434 163.775 157.038 163.465 155.562C163.145 154.087 162.845 152.725 162.565 151.476C161.295 151.715 159.835 151.999 158.165 152.316C156.505 152.634 155.015 152.895 153.705 153.099C153.625 153.701 153.555 154.495 153.495 155.471C153.435 156.459 153.385 157.424 153.325 158.388C153.265 159.353 153.215 160.227 153.165 161.033C153.115 161.839 153.085 162.372 153.055 162.644L143.005 163.484C143.085 162.247 143.265 160.329 143.535 157.741C143.805 155.142 144.145 152.226 144.535 148.991C144.925 145.756 145.345 142.34 145.795 138.776C146.245 135.213 146.695 131.864 147.125 128.732C147.565 125.6 147.955 122.83 148.305 120.436C148.655 118.041 148.915 116.384 149.095 115.453C149.535 115.419 150.445 115.34 151.815 115.226C153.195 115.113 154.665 114.999 156.245 114.886C157.825 114.772 159.285 114.67 160.645 114.556C162.005 114.443 162.875 114.375 163.275 114.341C163.435 114.965 163.745 116.134 164.195 117.848C164.645 119.562 165.175 121.593 165.795 123.931C166.405 126.269 167.085 128.846 167.825 131.649C168.565 134.452 169.315 137.301 170.065 140.172C170.815 143.044 171.545 145.858 172.265 148.594C172.985 151.329 173.625 153.803 174.185 156.016C174.745 158.229 175.225 160.068 175.595 161.566C175.975 163.064 176.195 163.984 176.255 164.347L165.565 165.209ZM154.765 144.394C155.765 144.36 156.785 144.304 157.825 144.247C158.865 144.179 159.865 144.133 160.825 144.099C160.445 142.533 160.065 141.001 159.685 139.48C159.305 137.959 158.945 136.529 158.595 135.167C158.245 133.805 157.915 132.557 157.605 131.422C157.295 130.287 157.025 129.345 156.815 128.584C156.705 129.413 156.585 130.412 156.435 131.592C156.295 132.761 156.125 134.055 155.935 135.462C155.745 136.87 155.545 138.334 155.345 139.843C155.145 141.353 154.945 142.874 154.765 144.394Z" fill="white"/>
<path d="M216.125 148.526C215.965 148.253 215.685 147.64 215.295 146.71C214.895 145.779 214.435 144.712 213.895 143.498C213.355 142.284 212.795 141.001 212.195 139.639C211.595 138.277 211.045 137.029 210.525 135.871C209.335 136.427 207.965 137.074 206.405 137.8C204.845 138.527 203.445 139.162 202.205 139.684C202.245 140.286 202.325 141.08 202.465 142.057C202.605 143.033 202.735 143.997 202.865 144.939C202.995 145.893 203.115 146.767 203.225 147.561C203.335 148.356 203.405 148.889 203.435 149.161L193.795 152.509C193.635 151.284 193.435 149.377 193.195 146.767C192.955 144.168 192.715 141.239 192.455 137.982C192.205 134.725 191.955 131.297 191.695 127.711C191.435 124.124 191.225 120.742 191.035 117.576C190.855 114.409 190.695 111.617 190.565 109.188C190.435 106.76 190.365 105.08 190.365 104.126C190.785 103.979 191.655 103.672 192.975 103.218C194.295 102.764 195.715 102.276 197.235 101.777C198.755 101.278 200.165 100.801 201.465 100.347C202.765 99.8931 203.605 99.6093 203.995 99.4731C204.275 100.041 204.805 101.107 205.575 102.662C206.345 104.217 207.265 106.067 208.315 108.19C209.365 110.312 210.535 112.65 211.805 115.204C213.075 117.757 214.355 120.334 215.645 122.955C216.935 125.566 218.195 128.119 219.435 130.616C220.675 133.102 221.775 135.36 222.755 137.369C223.735 139.378 224.555 141.069 225.215 142.431C225.875 143.793 226.265 144.644 226.405 144.973L216.125 148.526ZM201.535 130.945C202.505 130.662 203.485 130.355 204.485 130.026C205.485 129.708 206.455 129.402 207.385 129.129C206.705 127.699 206.035 126.292 205.375 124.919C204.705 123.534 204.075 122.229 203.465 120.992C202.855 119.755 202.295 118.62 201.765 117.598C201.235 116.566 200.795 115.714 200.445 115.033C200.505 115.873 200.575 116.872 200.665 118.052C200.755 119.233 200.845 120.526 200.935 121.945C201.025 123.364 201.115 124.839 201.215 126.371C201.305 127.892 201.415 129.413 201.535 130.945Z" fill="white"/>
<path d="M240.986 88.2485C241.026 88.6117 241.076 89.5083 241.136 90.9497C241.196 92.3911 241.246 94.173 241.296 96.318C241.346 98.4631 241.406 100.846 241.456 103.48C241.516 106.113 241.576 108.814 241.646 111.583C241.716 114.352 241.776 117.099 241.836 119.823C241.896 122.547 241.956 125.055 242.016 127.325C242.076 129.606 242.136 131.581 242.176 133.249C242.216 134.918 242.256 136.087 242.286 136.734L228.456 140.763C228.026 139.946 227.326 138.572 226.376 136.62C225.416 134.668 224.336 132.421 223.116 129.867C221.896 127.314 220.626 124.59 219.286 121.707C217.956 118.813 216.686 116.043 215.486 113.388C214.286 110.732 213.226 108.314 212.296 106.124C211.366 103.934 210.686 102.265 210.266 101.13C210.866 100.858 211.596 100.54 212.466 100.177C213.336 99.8023 214.226 99.4278 215.156 99.0419C216.076 98.656 216.976 98.2815 217.846 97.907C218.716 97.5438 219.446 97.2147 220.046 96.9536C220.306 97.7254 220.716 98.8149 221.276 100.211C221.846 101.618 222.496 103.196 223.246 104.944C223.996 106.691 224.776 108.553 225.596 110.516C226.416 112.48 227.226 114.375 228.026 116.202C228.836 118.03 229.576 119.732 230.266 121.321C230.956 122.899 231.516 124.192 231.946 125.191C231.956 123.965 231.946 122.342 231.896 120.322C231.846 118.291 231.796 116.123 231.726 113.796C231.656 111.47 231.566 109.086 231.466 106.623C231.366 104.172 231.276 101.891 231.186 99.7796C231.106 97.6686 231.026 95.8527 230.976 94.3205C230.916 92.7883 230.866 91.7442 230.826 91.1994L240.986 88.2485Z" fill="white"/>
<path d="M270.355 93.5147C269.385 93.685 268.275 93.8892 267.005 94.1276C265.745 94.3659 264.365 94.6043 262.885 94.8653C261.405 95.1263 259.945 95.3647 258.525 95.6144C258.615 96.9309 258.705 98.3156 258.805 99.7456C258.905 101.176 259.015 102.64 259.135 104.138C260.385 103.797 261.735 103.446 263.205 103.105C264.675 102.765 265.955 102.413 267.035 102.05C267.115 102.583 267.245 103.446 267.415 104.637C267.585 105.829 267.755 107.077 267.945 108.405C268.135 109.733 268.285 110.982 268.415 112.151C268.535 113.331 268.615 114.114 268.635 114.523C268.185 114.523 267.625 114.545 266.935 114.591C266.255 114.636 265.505 114.704 264.685 114.806C263.865 114.897 263.045 114.999 262.235 115.101C261.415 115.204 260.645 115.272 259.925 115.328C259.995 116.282 260.065 117.224 260.125 118.155C260.195 119.085 260.255 120.004 260.315 120.912C261.605 120.561 262.985 120.186 264.465 119.789C265.945 119.392 267.415 119.017 268.855 118.654C270.305 118.291 271.655 117.973 272.905 117.689C274.165 117.417 275.185 117.213 275.985 117.099L277.815 128.698C277.305 128.8 276.415 128.982 275.155 129.243C273.895 129.504 272.455 129.788 270.845 130.117C269.225 130.446 267.515 130.787 265.705 131.161C263.895 131.536 262.195 131.876 260.625 132.194C259.045 132.512 257.665 132.795 256.455 133.034C255.255 133.272 254.455 133.442 254.065 133.522L253.355 133.669C253.255 132.773 253.035 131.161 252.685 128.857C252.345 126.553 251.945 123.897 251.495 120.901C251.045 117.905 250.545 114.704 250.015 111.311C249.475 107.917 248.965 104.649 248.475 101.527C247.985 98.395 247.525 95.5576 247.105 93.0153C246.685 90.473 246.345 88.5323 246.095 87.2044C246.135 87.193 246.635 87.0795 247.595 86.8639C248.555 86.6483 249.795 86.3759 251.305 86.0467C252.815 85.7176 254.505 85.3544 256.375 84.9458C258.245 84.5486 260.085 84.1627 261.895 83.7882C263.705 83.425 265.395 83.1072 266.955 82.8348C268.515 82.5624 269.755 82.3808 270.675 82.29L272.385 93.1515C272.005 93.2196 271.325 93.3445 270.355 93.5147Z" fill="white"/>
<path d="M296.106 78.9645C296.896 78.8397 297.856 78.7262 298.966 78.6127C300.086 78.4992 301.216 78.3857 302.376 78.2722C303.536 78.1587 304.616 78.0679 305.636 77.9885C306.656 77.909 307.466 77.8409 308.056 77.7842C308.056 78.8737 308.056 80.6897 308.046 83.2206C308.036 85.7515 308.046 88.6343 308.076 91.8689C308.106 95.1035 308.116 98.497 308.136 102.049C308.156 105.602 308.176 108.95 308.216 112.094C308.256 115.238 308.286 117.996 308.306 120.39C308.326 122.785 308.356 124.408 308.376 125.271L300.126 126.088C299.206 124.033 298.386 122.24 297.666 120.685C296.946 119.142 296.166 117.439 295.316 115.589C294.476 113.739 293.666 111.958 292.886 110.255C292.116 108.553 291.436 107.077 290.856 105.806C290.276 104.546 289.916 103.706 289.766 103.321C289.816 105 289.876 107.066 289.936 109.529C290.006 111.98 290.056 114.409 290.106 116.792C290.146 119.176 290.186 121.332 290.236 123.239C290.286 125.146 290.306 126.406 290.316 126.996L279.496 128.063C279.406 125.838 279.316 123.262 279.236 120.334C279.156 117.405 279.066 114.352 278.986 111.197C278.906 108.042 278.816 104.864 278.706 101.686C278.606 98.5084 278.516 95.5689 278.456 92.8563C278.386 90.1552 278.316 87.7831 278.246 85.7629C278.176 83.7427 278.126 82.3013 278.096 81.4387C278.736 81.416 279.556 81.3706 280.556 81.3025C281.556 81.2231 282.586 81.1663 283.646 81.0982C284.706 81.0415 285.726 80.9734 286.706 80.9053C287.686 80.8372 288.476 80.7691 289.066 80.701C289.216 81.0982 289.566 81.9154 290.126 83.1638C290.686 84.4123 291.376 85.9218 292.186 87.715C293.006 89.5082 293.906 91.4604 294.896 93.6054C295.886 95.7391 296.876 97.8728 297.886 100.007C297.696 97.5664 297.506 95.2057 297.316 92.9131C297.116 90.6318 296.946 88.5435 296.806 86.6368C296.656 84.7414 296.526 83.1185 296.406 81.7906C296.286 80.44 296.186 79.5093 296.106 78.9645Z" fill="white"/>
<path d="M342.905 88.9065C342.345 88.9406 341.295 88.986 339.755 89.0541C338.215 89.1222 336.425 89.1676 334.385 89.2243C334.235 91.2672 334.095 93.4804 333.955 95.8524C333.825 98.2358 333.675 100.631 333.515 103.025C333.355 105.431 333.205 107.803 333.055 110.13C332.905 112.468 332.765 114.636 332.655 116.633C332.545 118.631 332.435 120.401 332.335 121.945C332.235 123.488 332.155 124.669 332.105 125.486L322.265 125.304C322.315 124.306 322.355 122.501 322.375 119.891C322.395 117.28 322.395 114.273 322.385 110.868C322.375 107.463 322.355 103.888 322.335 100.143C322.305 96.3972 322.305 92.8902 322.305 89.6215C320.145 89.6669 318.305 89.7123 316.785 89.7577C315.265 89.7918 314.345 89.8372 314.025 89.8712L314.205 77.818C314.725 77.784 315.695 77.7726 317.115 77.8067C318.535 77.8294 320.185 77.8521 322.065 77.8634C323.945 77.8748 325.955 77.9088 328.095 77.9429C330.235 77.9883 332.285 78.0223 334.245 78.0564C336.205 78.0904 337.975 78.1358 339.555 78.1926C341.135 78.2493 342.305 78.3061 343.065 78.3628L342.905 88.9065Z" fill="white"/>
<path d="M377.576 84.9912C377.716 93.5147 377.266 100.653 376.246 106.396C375.226 112.139 373.786 116.736 371.946 120.186C370.106 123.625 367.976 125.997 365.576 127.268C363.176 128.551 360.666 128.959 358.066 128.505C355.376 128.029 353.126 126.928 351.326 125.191C349.516 123.455 348.276 120.719 347.616 116.997C346.946 113.274 346.896 108.36 347.466 102.254C348.036 96.1477 349.366 88.5095 351.466 79.3164L361.606 81.0869C361.596 81.1777 361.466 81.7566 361.216 82.8121C360.966 83.8676 360.656 85.2522 360.286 86.9546C359.916 88.6571 359.516 90.5978 359.096 92.7769C358.676 94.956 358.296 97.1692 357.946 99.4278C357.596 101.686 357.336 103.911 357.156 106.113C356.976 108.314 356.936 110.278 357.026 112.014C357.116 113.751 357.376 115.192 357.806 116.316C358.236 117.451 358.906 118.098 359.816 118.257C360.726 118.415 361.526 118.041 362.216 117.122C362.906 116.214 363.516 114.965 364.056 113.376C364.596 111.799 365.046 109.971 365.406 107.894C365.766 105.818 366.076 103.684 366.336 101.482C366.596 99.2802 366.796 97.1125 366.946 94.9787C367.096 92.845 367.216 90.927 367.306 89.2132C367.396 87.5108 367.456 86.1148 367.476 85.0366C367.506 83.9584 367.516 83.3795 367.536 83.2887C368.206 83.4022 368.996 83.5498 369.906 83.7087C370.816 83.8676 371.736 84.0265 372.666 84.1967C373.596 84.3556 374.496 84.5031 375.366 84.6393C376.246 84.7755 376.986 84.889 377.576 84.9912Z" fill="white"/>
<path d="M396.546 120.674C397.426 121.537 398.316 122.377 399.206 123.216C400.096 124.056 400.946 124.862 401.766 125.657C402.586 126.451 403.326 127.177 404.016 127.836C404.696 128.494 405.286 129.084 405.796 129.595C405.396 130.094 404.866 130.753 404.186 131.558C403.516 132.375 402.806 133.204 402.066 134.044C401.326 134.884 400.626 135.701 399.956 136.473C399.296 137.244 398.776 137.812 398.406 138.175C398.016 137.687 397.366 136.859 396.446 135.69C395.526 134.521 394.476 133.193 393.296 131.717C392.116 130.242 390.876 128.664 389.566 126.984C388.266 125.305 387.026 123.739 385.866 122.297C385.616 123.069 385.336 124.045 385.036 125.225C384.736 126.406 384.436 127.575 384.146 128.732C383.856 129.89 383.576 130.934 383.336 131.876C383.086 132.818 382.906 133.476 382.776 133.862L374.676 131.581C374.906 130.707 375.266 129.186 375.736 127.007C376.216 124.828 376.766 122.308 377.396 119.437C378.026 116.577 378.676 113.524 379.366 110.278C380.056 107.032 380.716 103.911 381.356 100.903C381.996 97.8957 382.566 95.1718 383.086 92.7203C383.606 90.2688 383.976 88.3961 384.216 87.1136C384.316 86.671 384.816 86.4099 385.716 86.3078C386.626 86.217 387.776 86.2965 389.186 86.5461C390.596 86.8072 392.156 87.2158 393.886 87.8059C395.616 88.3848 397.346 89.1565 399.066 90.1099C400.796 91.0632 402.446 92.1982 404.016 93.5034C405.586 94.8086 406.906 96.3181 407.976 98.0205C409.046 99.7229 409.776 101.618 410.166 103.695C410.556 105.772 410.466 108.042 409.886 110.494C409.506 112.026 408.906 113.41 408.076 114.648C407.246 115.885 406.256 116.963 405.116 117.882C403.976 118.801 402.656 119.494 401.196 119.97C399.756 120.436 398.196 120.674 396.546 120.674ZM389.826 109.302C391.026 110.017 392.166 110.55 393.246 110.902C394.326 111.254 395.306 111.39 396.186 111.311C397.066 111.231 397.826 110.914 398.466 110.346C399.106 109.779 399.596 108.905 399.936 107.747C400.286 106.533 400.356 105.42 400.146 104.399C399.936 103.377 399.526 102.47 398.916 101.664C398.306 100.858 397.506 100.177 396.516 99.6208C395.526 99.0647 394.426 98.6107 393.226 98.2702C392.746 99.9159 392.216 101.664 391.636 103.548C391.066 105.409 390.466 107.338 389.826 109.302Z" fill="white"/>
<path d="M424.305 150.5C424.305 150.171 424.375 149.49 424.495 148.469C424.615 147.447 424.755 146.256 424.895 144.905C425.035 143.555 425.195 142.125 425.365 140.626C425.535 139.117 425.675 137.721 425.805 136.438C424.545 136.155 423.085 135.826 421.425 135.451C419.765 135.077 418.295 134.725 417.005 134.384C416.745 134.906 416.425 135.621 416.065 136.518C415.705 137.415 415.345 138.3 414.995 139.174C414.645 140.048 414.315 140.853 414.015 141.58C413.715 142.306 413.515 142.794 413.415 143.044L403.755 139.775C404.215 138.652 404.985 136.938 406.055 134.623C407.125 132.307 408.345 129.708 409.725 126.837C411.105 123.965 412.565 120.958 414.105 117.803C415.645 114.647 417.105 111.696 418.505 108.95C419.895 106.203 421.125 103.775 422.205 101.675C423.275 99.5752 424.045 98.1338 424.505 97.3394C424.925 97.4869 425.795 97.782 427.125 98.2246C428.445 98.6673 429.865 99.1666 431.375 99.7001C432.885 100.233 434.285 100.722 435.595 101.164C436.895 101.607 437.745 101.891 438.125 102.015C438.085 102.662 438.005 103.877 437.885 105.67C437.765 107.452 437.635 109.563 437.475 112.003C437.315 114.432 437.145 117.11 436.955 120.038C436.775 122.967 436.575 125.917 436.375 128.902C436.175 131.887 435.975 134.815 435.795 137.664C435.605 140.513 435.435 143.089 435.265 145.371C435.105 147.663 434.965 149.581 434.845 151.125C434.725 152.668 434.645 153.633 434.595 153.985L424.305 150.5ZM420.735 126.689C421.685 127.052 422.655 127.427 423.645 127.779C424.635 128.142 425.585 128.494 426.495 128.846C426.625 127.234 426.755 125.645 426.875 124.067C426.995 122.501 427.105 121.003 427.205 119.596C427.305 118.188 427.385 116.883 427.445 115.703C427.505 114.511 427.555 113.524 427.595 112.729C427.235 113.456 426.805 114.341 426.305 115.385C425.805 116.418 425.245 117.564 424.625 118.801C424.005 120.038 423.365 121.321 422.705 122.66C422.035 123.999 421.375 125.35 420.735 126.689Z" fill="white"/>
<path d="M140.905 35.4958C140.815 35.7569 140.565 36.3811 140.155 37.3571C139.745 38.3445 139.215 39.5589 138.575 41.0117C137.935 42.4644 137.225 44.0874 136.435 45.8693C135.645 47.6511 134.845 49.4898 134.025 51.3738C133.205 53.2578 132.385 55.1191 131.565 56.9691C130.745 58.8191 130.005 60.5215 129.335 62.065C128.665 63.6199 128.075 64.9592 127.585 66.1055C127.095 67.2404 126.755 68.0349 126.565 68.4775L116.035 65.5834C116.005 64.8684 115.965 63.6653 115.935 61.9742C115.905 60.2832 115.885 58.3424 115.865 56.1406C115.855 53.9388 115.845 51.6008 115.865 49.1266C115.875 46.6524 115.895 44.2803 115.925 42.0218C115.955 39.7632 116.005 37.709 116.065 35.8704C116.135 34.0317 116.195 32.6357 116.275 31.7051C116.765 31.7732 117.355 31.8526 118.045 31.9548C118.745 32.0569 119.455 32.1704 120.195 32.2839C120.935 32.3974 121.655 32.5109 122.345 32.613C123.045 32.7152 123.635 32.7946 124.115 32.8627C124.045 33.4756 123.975 34.3722 123.915 35.5412C123.855 36.7102 123.795 38.0381 123.745 39.5022C123.695 40.9776 123.635 42.5325 123.565 44.1782C123.495 45.8239 123.445 47.4242 123.405 48.9677C123.365 50.5112 123.335 51.964 123.305 53.2919C123.265 54.6311 123.235 55.7207 123.215 56.5605C123.605 55.7434 124.105 54.6538 124.715 53.2805C125.325 51.9072 125.965 50.4318 126.645 48.8428C127.325 47.2539 128.015 45.6309 128.725 43.9399C129.425 42.2601 130.085 40.6939 130.685 39.2412C131.285 37.7998 131.815 36.5513 132.255 35.5072C132.695 34.463 132.985 33.748 133.135 33.3621L140.905 35.4958Z" fill="white"/>
<path d="M136.775 70.7359C136.895 70.0549 137.055 68.9654 137.255 67.4445C137.455 65.9351 137.675 64.1986 137.925 62.2578C138.165 60.317 138.425 58.2401 138.705 56.0496C138.985 53.8478 139.245 51.7255 139.485 49.6598C139.725 47.5942 139.955 45.6989 140.175 43.9851C140.385 42.26 140.545 40.9094 140.645 39.9106L148.655 41.2839C148.555 41.8287 148.365 42.8388 148.095 44.3256C147.825 45.8124 147.505 47.5375 147.155 49.5123C146.805 51.4871 146.415 53.5981 145.995 55.8453C145.575 58.0925 145.175 60.2489 144.785 62.3259C144.405 64.4029 144.055 66.2869 143.735 68.0007C143.415 69.7031 143.185 70.9742 143.045 71.8255L136.775 70.7359ZM149.045 36.4831C149.005 37.0278 148.945 37.6634 148.885 38.3898C148.815 39.1048 148.775 39.7971 148.745 40.4554L140.735 39.0821C140.885 38.4125 141.035 37.8223 141.175 37.3002C141.315 36.7895 141.485 36.0858 141.655 35.2119L149.045 36.4831Z" fill="white"/>
<path d="M174.375 38.5603C174.335 38.8327 174.185 39.5023 173.945 40.5578C173.705 41.6133 173.385 42.9185 173.005 44.4848C172.615 46.051 172.185 47.7875 171.705 49.7169C171.225 51.635 170.735 53.6098 170.245 55.63C169.745 57.6502 169.255 59.6591 168.755 61.6452C168.255 63.6314 167.805 65.4587 167.405 67.127C166.995 68.7954 166.645 70.2368 166.355 71.4626C166.055 72.6883 165.855 73.5395 165.745 74.0162L154.925 73.4147C154.775 72.7224 154.545 71.542 154.235 69.885C153.925 68.2279 153.585 66.3212 153.205 64.1648C152.825 62.0084 152.445 59.7158 152.045 57.2757C151.645 54.8355 151.275 52.5089 150.935 50.2844C150.595 48.0599 150.295 46.0396 150.055 44.2124C149.815 42.3851 149.655 41.0118 149.575 40.0698C150.065 40.0244 150.655 39.979 151.355 39.9336C152.055 39.8882 152.775 39.8428 153.525 39.7974C154.275 39.752 154.995 39.7066 155.695 39.6612C156.395 39.6158 156.985 39.5704 157.475 39.525C157.505 40.1492 157.595 41.0345 157.725 42.2035C157.855 43.3612 158.015 44.6777 158.215 46.1304C158.405 47.5945 158.605 49.1381 158.815 50.761C159.015 52.3954 159.235 53.973 159.455 55.5051C159.675 57.0373 159.885 58.456 160.065 59.7839C160.255 61.1004 160.405 62.1786 160.515 63.0185C160.765 62.1333 161.075 60.9529 161.445 59.4775C161.815 58.002 162.195 56.4131 162.605 54.7107C163.015 53.0082 163.425 51.2604 163.835 49.4558C164.245 47.6513 164.635 45.9715 164.985 44.428C165.345 42.8845 165.645 41.5452 165.905 40.4216C166.165 39.298 166.335 38.5376 166.415 38.1177L174.375 38.5603Z" fill="white"/>
<path d="M192.165 42.9412C191.435 43.1001 190.595 43.293 189.645 43.5087C188.695 43.7243 187.655 43.9513 186.535 44.1897C185.415 44.428 184.325 44.655 183.245 44.882C183.345 45.8807 183.445 46.9249 183.555 48.0031C183.665 49.0813 183.785 50.1935 183.905 51.3285C184.845 51.0334 185.865 50.727 186.965 50.4205C188.075 50.1141 189.025 49.8077 189.845 49.5126C189.925 49.9212 190.035 50.5681 190.195 51.4647C190.345 52.3613 190.515 53.3033 190.685 54.3021C190.855 55.3008 191.005 56.2428 191.125 57.1281C191.245 58.0134 191.315 58.6149 191.345 58.9213C191.005 58.9327 190.575 58.9667 190.065 59.0235C189.545 59.0802 188.985 59.1597 188.365 59.2505C187.745 59.3526 187.125 59.4434 186.515 59.5456C185.895 59.6477 185.315 59.7271 184.765 59.7839C184.835 60.5103 184.915 61.2139 184.985 61.9176C185.055 62.6213 185.125 63.3136 185.195 64.0059C186.165 63.6995 187.205 63.3817 188.315 63.0299C189.425 62.6894 190.535 62.3602 191.615 62.0424C192.705 61.7247 193.715 61.4409 194.665 61.1912C195.615 60.9415 196.385 60.7599 196.985 60.6578L198.635 69.3969C198.245 69.4877 197.585 69.658 196.635 69.885C195.685 70.1119 194.605 70.3843 193.385 70.6794C192.165 70.9745 190.875 71.2923 189.515 71.6214C188.155 71.9506 186.875 72.2684 185.685 72.5521C184.495 72.8358 183.455 73.0969 182.545 73.3125C181.635 73.5282 181.035 73.6757 180.745 73.7551L180.215 73.88C180.115 73.199 179.915 71.996 179.595 70.2595C179.285 68.523 178.925 66.5255 178.505 64.267C178.095 62.0084 177.645 59.6023 177.165 57.0373C176.685 54.4837 176.215 52.0208 175.775 49.6601C175.325 47.2994 174.915 45.1657 174.545 43.2476C174.165 41.3296 173.865 39.8768 173.645 38.8667C173.675 38.8554 174.055 38.7646 174.775 38.5603C175.495 38.3674 176.425 38.1177 177.565 37.8226C178.705 37.5275 179.975 37.1983 181.385 36.8352C182.795 36.472 184.175 36.1315 185.545 35.791C186.905 35.4619 188.175 35.1668 189.355 34.9171C190.535 34.6674 191.465 34.4858 192.165 34.395L193.715 42.578C193.405 42.6688 192.895 42.7823 192.165 42.9412Z" fill="white"/>
<path d="M220.375 22.875C222.345 26.643 223.725 30.0138 224.525 32.9761C225.315 35.9383 225.675 38.56 225.585 40.8299C225.505 43.0998 225.065 45.0179 224.275 46.6068C223.485 48.1844 222.515 49.4556 221.355 50.4203C221.625 51.0445 221.915 51.7255 222.235 52.4632C222.555 53.2009 222.865 53.95 223.175 54.7217C223.485 55.4935 223.785 56.2426 224.085 56.969C224.385 57.6953 224.665 58.3536 224.925 58.9438C224.435 59.1254 223.795 59.341 223.005 59.602C222.215 59.8631 221.405 60.1468 220.565 60.4533C219.725 60.7483 218.925 61.0548 218.165 61.3385C217.405 61.6336 216.805 61.8492 216.375 62.0081C216.145 60.7143 215.895 59.2956 215.645 57.7521C215.385 56.1972 215.145 54.5515 214.905 52.7923C213.445 52.815 211.995 52.4291 210.555 51.646C209.115 50.8629 207.775 49.5691 206.545 47.7758C205.315 45.9826 204.235 43.5992 203.295 40.6483C202.365 37.6975 201.675 34.0429 201.225 29.6961L209.165 26.8473C209.185 26.9154 209.215 27.4375 209.275 28.4363C209.325 29.4237 209.445 30.6381 209.615 32.0568C209.785 33.4754 210.025 34.9849 210.325 36.5966C210.625 38.2082 211.035 39.6496 211.555 40.9434C212.075 42.2373 212.705 43.236 213.445 43.9511C214.185 44.6661 215.095 44.8477 216.175 44.4958C217.285 44.1326 217.965 43.429 218.205 42.3621C218.445 41.2953 218.435 40.0922 218.145 38.7303C217.865 37.3683 217.395 35.9496 216.745 34.4629C216.095 32.9761 215.445 31.6141 214.785 30.343C214.135 29.0832 213.545 28.0163 213.035 27.1538C212.525 26.2912 212.265 25.8259 212.245 25.7578C212.765 25.5762 213.385 25.3605 214.115 25.1109C214.845 24.8725 215.585 24.6115 216.335 24.3391C217.085 24.0667 217.825 23.8057 218.545 23.5446C219.275 23.2722 219.885 23.0566 220.375 22.875Z" fill="white"/>
<path d="M233.165 18.8347C233.735 18.3126 234.555 17.8927 235.625 17.5522C236.695 17.2231 237.945 17.0301 239.365 16.962C240.795 16.9053 242.285 17.0301 243.845 17.3366C245.405 17.643 246.965 18.1537 248.535 18.8461C250.105 19.5497 251.555 20.4917 252.885 21.6834C254.215 22.8751 255.395 24.3506 256.395 26.0984C257.405 27.8462 258.115 29.9232 258.535 32.3293C258.955 34.7354 258.965 37.062 258.565 39.3092C258.165 41.5564 257.245 43.6107 255.805 45.472C254.365 47.3333 252.345 48.9563 249.765 50.3523C247.185 51.7483 243.915 52.7698 239.965 53.428C239.885 52.9513 239.715 52.1228 239.445 50.9425C239.175 49.7621 238.855 48.3548 238.485 46.7205C238.115 45.0861 237.715 43.3156 237.275 41.3975C236.845 39.4795 236.405 37.5501 235.965 35.6206C235.525 33.6912 235.105 31.8072 234.695 29.9913C234.285 28.1754 233.915 26.5751 233.585 25.1904C233.255 23.8171 232.905 22.2736 232.515 20.5712C232.375 19.9356 232.595 19.3568 233.165 18.8347ZM250.575 34.3381C250.365 32.9762 249.985 31.7958 249.445 30.7744C248.905 29.7643 248.265 28.9017 247.525 28.1867C246.785 27.483 245.945 26.9269 245.015 26.5183C244.075 26.1211 243.105 25.826 242.095 25.6671C242.295 27.0971 242.515 28.6407 242.765 30.275C243.005 31.9093 243.255 33.5664 243.495 35.2575C243.735 36.9485 243.975 38.6056 244.225 40.2399C244.465 41.8742 244.695 43.4064 244.895 44.8478C246.275 44.303 247.385 43.6334 248.225 42.8389C249.065 42.0445 249.685 41.1819 250.085 40.2399C250.485 39.3092 250.715 38.3332 250.765 37.3231C250.795 36.3243 250.735 35.3256 250.575 34.3381Z" fill="white"/>
<path d="M263.895 10.1411C264.025 10.6745 264.175 11.2874 264.345 11.9797C264.515 12.6721 264.685 13.3417 264.865 13.9659L256.955 15.9407C256.885 15.2484 256.835 14.6355 256.805 14.1021C256.775 13.5573 256.705 12.8536 256.595 11.957L263.895 10.1411ZM263.225 47.1065C263.125 46.4255 262.925 45.336 262.645 43.8378C262.355 42.3397 262.015 40.6373 261.635 38.7192C261.255 36.8011 260.845 34.7696 260.405 32.6018C259.975 30.4341 259.545 28.3457 259.115 26.3142C258.695 24.2826 258.305 22.4213 257.965 20.7302C257.625 19.0391 257.345 17.6999 257.125 16.7352L265.035 14.7604C265.105 15.3051 265.255 16.3266 265.465 17.8247C265.675 19.3229 265.925 21.0707 266.215 23.0569C266.505 25.043 266.805 27.1767 267.125 29.4353C267.435 31.7052 267.745 33.8843 268.045 35.9726C268.335 38.0609 268.605 39.979 268.845 41.6928C269.085 43.4179 269.265 44.7004 269.405 45.5403L263.225 47.1065Z" fill="white"/>
<path d="M283.715 22.5574C285.125 23.3292 286.495 24.0896 287.835 24.8614C289.165 25.6331 290.345 26.4616 291.365 27.3583C292.385 28.2549 293.165 29.2763 293.705 30.4113C294.245 31.5462 294.425 32.8628 294.225 34.3723C294.075 35.6207 293.565 36.7897 292.685 37.8793C291.805 38.9688 290.705 39.8654 289.385 40.6031C288.065 41.3409 286.585 41.8516 284.935 42.1467C283.285 42.4418 281.625 42.4418 279.945 42.1353C278.265 41.8402 276.635 41.2047 275.055 40.2173C273.475 39.2412 272.065 37.8225 270.825 35.9725C271.015 35.5867 271.275 35.11 271.615 34.5312C271.955 33.9523 272.335 33.3622 272.745 32.7379C273.155 32.1137 273.565 31.4895 273.955 30.8766C274.355 30.2524 274.715 29.6849 275.035 29.1742C275.505 29.8098 276.235 30.5929 277.215 31.4895C278.195 32.3861 279.245 33.1806 280.355 33.8502C281.455 34.5198 282.505 34.9397 283.485 35.1213C284.465 35.2916 285.185 34.9511 285.635 34.0885C285.855 33.6913 285.825 33.3395 285.545 33.033C285.265 32.7266 284.845 32.4201 284.275 32.1364C283.705 31.8527 283.035 31.5689 282.275 31.2965C281.515 31.0242 280.765 30.7291 280.035 30.3772C279.435 30.1162 278.755 29.7757 277.985 29.3671C277.215 28.9585 276.435 28.5273 275.635 28.0506C274.835 27.5739 274.065 27.0859 273.325 26.5638C272.585 26.0417 271.945 25.5423 271.405 25.0543C269.835 23.6583 268.885 21.9899 268.555 20.0605C268.225 18.1311 268.385 16.2698 269.035 14.4652C269.685 12.6606 270.745 11.0717 272.225 9.68706C273.705 8.31377 275.475 7.47391 277.515 7.16747C278.805 6.98588 280.155 7.09937 281.545 7.5193C282.935 7.93924 284.265 8.51806 285.555 9.24443C286.835 9.9708 288.015 10.788 289.095 11.6846C290.175 12.5925 291.055 13.4324 291.725 14.2042C291.375 14.556 290.925 15.0327 290.375 15.6456C289.825 16.2584 289.235 16.9167 288.625 17.6204C288.005 18.324 287.385 19.0164 286.745 19.6973C286.115 20.3783 285.555 20.9458 285.065 21.3884C284.815 21.1955 284.485 20.8777 284.065 20.4578C283.645 20.0378 283.185 19.5725 282.695 19.0731C282.205 18.5737 281.685 18.0857 281.125 17.5977C280.575 17.1096 280.045 16.7124 279.555 16.3946C279.065 16.0768 278.605 15.8952 278.205 15.8498C277.795 15.8045 277.465 15.9747 277.215 16.3379C276.765 17.0188 276.745 17.6658 277.145 18.2673C277.545 18.8688 278.135 19.4363 278.905 19.9584C279.675 20.4918 280.525 20.9685 281.435 21.3998C282.345 21.8424 283.105 22.2283 283.715 22.5574Z" fill="white"/>
<path d="M311.085 10.4813C310.365 10.5607 309.505 10.6515 308.525 10.765C307.545 10.8785 306.485 10.992 305.355 11.1055C304.225 11.219 303.115 11.3325 302.025 11.4346C302.035 12.4334 302.045 13.4775 302.065 14.5444C302.085 15.6112 302.105 16.7235 302.125 17.8584C303.115 17.6995 304.165 17.518 305.275 17.3137C306.385 17.1207 307.355 16.9164 308.195 16.7008C308.235 17.1094 308.295 17.779 308.375 18.7097C308.455 19.6403 308.535 20.5937 308.625 21.5924C308.715 22.5912 308.775 23.5332 308.825 24.4298C308.875 25.3264 308.895 25.9279 308.895 26.2344C308.555 26.2457 308.135 26.2457 307.615 26.2457C307.095 26.2457 306.525 26.2457 305.895 26.2571C305.275 26.2684 304.645 26.2911 304.025 26.3252C303.405 26.3592 302.815 26.3706 302.265 26.3706C302.285 27.7893 302.315 29.1512 302.335 30.4678C302.365 31.7843 302.385 32.9987 302.405 34.1223C302.425 35.2459 302.455 36.2333 302.475 37.0732C302.495 37.9244 302.525 38.6054 302.545 39.1161L296.535 39.8992C296.495 39.2069 296.395 37.9925 296.235 36.2447C296.075 34.4968 295.885 32.4766 295.665 30.184C295.445 27.8914 295.215 25.4399 294.965 22.8409C294.715 20.2418 294.465 17.7336 294.205 15.3275C293.945 12.9214 293.715 10.7423 293.515 8.79018C293.315 6.83806 293.145 5.35128 293.015 4.32982C293.045 4.32982 293.425 4.27307 294.165 4.14823C294.905 4.03473 295.845 3.89854 297.005 3.72829C298.165 3.55805 299.455 3.37646 300.865 3.17217C302.275 2.96788 303.685 2.78628 305.065 2.62739C306.455 2.4685 307.745 2.32095 308.935 2.19611C310.125 2.07126 311.075 2.00317 311.775 1.98047L312.615 10.2883C312.325 10.3451 311.815 10.4018 311.085 10.4813Z" fill="white"/>
<path d="M330.195 24.3731C330.995 24.793 331.795 25.2016 332.595 25.6102C333.395 26.0074 334.165 26.4046 334.905 26.7905C335.645 27.1764 336.325 27.5282 336.935 27.8574C337.555 28.1752 338.095 28.4703 338.555 28.7313C338.355 29.1853 338.085 29.7868 337.745 30.5472C337.405 31.2963 337.035 32.068 336.645 32.8625C336.255 33.6456 335.895 34.406 335.545 35.1211C335.205 35.8361 334.925 36.3695 334.725 36.7214C334.355 36.4603 333.725 36.0063 332.845 35.3708C331.965 34.7352 330.955 34.0088 329.825 33.203C328.695 32.3972 327.505 31.5346 326.245 30.6153C324.995 29.696 323.805 28.8448 322.695 28.0503C322.655 28.6745 322.625 29.4463 322.625 30.377C322.625 31.3076 322.615 32.2269 322.615 33.1463C322.605 34.0542 322.605 34.8827 322.595 35.6318C322.585 36.3695 322.565 36.9029 322.545 37.2094L316.225 37.4364C316.235 36.744 316.215 35.5524 316.175 33.8499C316.125 32.1475 316.075 30.1727 316.015 27.9368C315.955 25.701 315.875 23.3176 315.795 20.7866C315.705 18.2557 315.625 15.8269 315.545 13.4889C315.465 11.1509 315.395 9.02853 315.325 7.11046C315.255 5.19239 315.195 3.751 315.135 2.75225C315.125 2.41176 315.445 2.09397 316.085 1.81024C316.725 1.5265 317.585 1.32221 318.665 1.17466C319.735 1.03847 320.955 0.970372 322.325 0.993071C323.695 1.01577 325.095 1.17466 326.525 1.4584C327.955 1.75349 329.365 2.19612 330.745 2.78629C332.125 3.37647 333.365 4.17094 334.455 5.15834C335.545 6.1571 336.415 7.36015 337.085 8.79019C337.745 10.2089 338.085 11.8886 338.115 13.818C338.115 15.0211 337.925 16.1787 337.555 17.2796C337.175 18.3805 336.645 19.3906 335.975 20.3326C335.305 21.2747 334.475 22.0805 333.495 22.7728C332.495 23.4538 331.405 23.9872 330.195 24.3731ZM323.225 17.6428C324.235 17.8812 325.165 18.006 326.015 18.006C326.865 18.006 327.605 17.8812 328.235 17.6201C328.865 17.3591 329.365 16.9391 329.725 16.383C330.085 15.8155 330.285 15.0665 330.325 14.1358C330.355 13.1711 330.205 12.3426 329.865 11.6503C329.525 10.9579 329.065 10.3905 328.475 9.94784C327.885 9.50521 327.175 9.18742 326.355 9.01718C325.535 8.84694 324.645 8.76749 323.705 8.80154C323.655 10.1181 323.585 11.5141 323.505 13.0236C323.425 14.533 323.335 16.0652 323.225 17.6428Z" fill="white"/>
<path d="M362.995 2.87721C363.615 9.30103 363.715 14.7261 363.295 19.1411C362.875 23.556 362.065 27.1425 360.885 29.8891C359.705 32.6356 358.245 34.5878 356.505 35.7341C354.765 36.8917 352.905 37.3911 350.905 37.2549C348.845 37.1073 347.085 36.4491 345.615 35.2801C344.145 34.1111 343.045 32.1363 342.315 29.3783C341.585 26.6204 341.245 22.9091 341.305 18.2558C341.365 13.6025 341.905 7.72345 342.925 0.618652L350.695 1.16343C350.695 1.23153 350.625 1.67416 350.505 2.49132C350.385 3.30849 350.235 4.37534 350.055 5.69189C349.875 7.00843 349.695 8.50657 349.515 10.1863C349.335 11.866 349.175 13.5685 349.055 15.3049C348.935 17.0414 348.865 18.7438 348.865 20.4122C348.865 22.0806 348.945 23.5787 349.125 24.8839C349.295 26.1891 349.585 27.256 349.975 28.0731C350.365 28.8903 350.915 29.3329 351.615 29.3783C352.315 29.4237 352.895 29.0832 353.355 28.3342C353.815 27.5851 354.205 26.5977 354.525 25.3606C354.835 24.1235 355.065 22.7048 355.215 21.1159C355.365 19.5269 355.465 17.8813 355.525 16.2015C355.585 14.5218 355.605 12.8648 355.595 11.2418C355.575 9.61882 355.555 8.16608 355.515 6.86089C355.475 5.55569 355.435 4.51154 355.395 3.69437C355.345 2.87721 355.325 2.43458 355.335 2.36648C355.845 2.40053 356.455 2.44592 357.155 2.49132C357.855 2.53672 358.555 2.59347 359.265 2.63887C359.975 2.68426 360.665 2.72966 361.335 2.76371C361.975 2.82046 362.545 2.84316 362.995 2.87721Z" fill="white"/>
<path d="M388.745 14.0678C388.315 14.0337 387.525 13.9656 386.365 13.8522C385.195 13.7387 383.845 13.6025 382.305 13.4322C382.025 14.9531 381.745 16.5987 381.455 18.3806C381.165 20.1625 380.865 21.9444 380.555 23.7376C380.245 25.5308 379.945 27.3013 379.635 29.0378C379.335 30.7856 379.055 32.3973 378.815 33.884C378.575 35.3708 378.355 36.6987 378.155 37.845C377.955 38.9913 377.805 39.8766 377.695 40.4895L370.305 39.3432C370.425 38.5941 370.595 37.2435 370.815 35.28C371.035 33.3166 371.285 31.0467 371.545 28.4817C371.805 25.9167 372.085 23.2269 372.365 20.4008C372.645 17.5748 372.915 14.9304 373.185 12.4789C371.555 12.2973 370.165 12.1384 369.015 12.0135C367.865 11.8887 367.175 11.8206 366.925 11.8206L368.015 2.76367C368.405 2.78637 369.145 2.88852 370.205 3.04741C371.265 3.2063 372.515 3.39924 373.925 3.60354C375.335 3.80783 376.845 4.03482 378.455 4.28451C380.065 4.5342 381.605 4.77254 383.075 4.99953C384.545 5.22652 385.875 5.44216 387.065 5.64645C388.245 5.85074 389.125 6.00963 389.695 6.13448L388.745 14.0678Z" fill="white"/>
<path d="M398.765 48.0144C398.755 47.7648 398.765 47.2427 398.805 46.4709C398.845 45.6878 398.885 44.7798 398.935 43.7584C398.975 42.7256 399.025 41.636 399.075 40.4897C399.125 39.3434 399.165 38.2766 399.205 37.3005C398.235 37.1643 397.115 37.0168 395.845 36.8352C394.575 36.6649 393.445 36.4833 392.455 36.3131C392.285 36.733 392.085 37.2891 391.855 37.9928C391.625 38.6965 391.405 39.3888 391.175 40.0698C390.955 40.7508 390.745 41.3863 390.555 41.9538C390.365 42.5213 390.235 42.9072 390.175 43.1001L382.705 41.2501C382.995 40.3762 383.495 39.0256 384.185 37.1984C384.875 35.3824 385.675 33.3395 386.575 31.081C387.475 28.8224 388.425 26.4504 389.435 23.9648C390.435 21.4793 391.395 19.1526 392.315 16.9849C393.225 14.8171 394.035 12.899 394.745 11.242C395.455 9.58498 395.955 8.43868 396.265 7.81445C396.595 7.8939 397.265 8.06414 398.285 8.31383C399.305 8.56352 400.405 8.84726 401.575 9.1537C402.745 9.46013 403.825 9.74387 404.835 9.99356C405.845 10.2432 406.495 10.4021 406.795 10.4816C406.795 10.9696 406.795 11.9003 406.795 13.2622C406.795 14.6242 406.795 16.2244 406.795 18.0744C406.795 19.9244 406.795 21.956 406.805 24.1805C406.815 26.405 406.815 28.6522 406.815 30.9221C406.815 33.192 406.815 35.4165 406.815 37.5842C406.815 39.752 406.815 41.7041 406.805 43.4519C406.795 45.1884 406.785 46.6525 406.775 47.8329C406.765 49.0132 406.745 49.7396 406.725 50.012L398.765 48.0144ZM394.875 30.2411C395.605 30.4567 396.355 30.6724 397.125 30.8767C397.895 31.081 398.625 31.2966 399.335 31.5009C399.355 30.2751 399.375 29.0607 399.385 27.869C399.395 26.6774 399.405 25.5424 399.415 24.4642C399.415 23.386 399.415 22.3986 399.405 21.502C399.395 20.6054 399.385 19.8449 399.375 19.2434C399.135 19.8222 398.855 20.5146 398.535 21.3317C398.215 22.1489 397.835 23.0455 397.435 24.0216C397.025 24.9976 396.605 26.0077 396.175 27.0632C395.725 28.1301 395.295 29.1856 394.875 30.2411Z" fill="white"/>
</g>
<defs>
<filter id="filter0_d_41_3287" x="0.115234" y="0.618652" width="537.77" height="213.262" filterUnits="userSpaceOnUse" color-interpolation-filters="sRGB">
<feFlood flood-opacity="0" result="BackgroundImageFix"/>
<feColorMatrix in="SourceAlpha" type="matrix" values="0 0 0 0 0 0 0 0 0 0 0 0 0 0 0 0 0 0 127 0" result="hardAlpha"/>
<feOffset dy="4"/>
<feGaussianBlur stdDeviation="2"/>
<feComposite in2="hardAlpha" operator="out"/>
<feColorMatrix type="matrix" values="0 0 0 0 0 0 0 0 0 0 0 0 0 0 0 0 0 0 0.5 0"/>
<feBlend mode="normal" in2="BackgroundImageFix" result="effect1_dropShadow_41_3287"/>
<feBlend mode="normal" in="SourceGraphic" in2="effect1_dropShadow_41_3287" result="shape"/>
</filter>
</defs>
</svg>
