<svg width="29" height="29" viewBox="0 0 29 29" fill="none" xmlns="http://www.w3.org/2000/svg">
<path d="M1.43827 16.5245C1.21642 16.0045 1.33733 15.4545 1.33733 14.9245C1.33733 14.3445 1.21642 13.7445 1.43827 13.1745C4.95759 13.1745 8.47687 13.1545 11.9861 13.1745C12.45 13.1745 12.5608 13.0645 12.5608 12.6045C12.5407 9.11451 12.5608 5.62452 12.5608 2.14452C13.6802 2.03452 14.8097 2.05452 15.929 2.14452C15.929 5.63452 15.9492 9.12452 15.929 12.6045C15.929 13.0645 16.0399 13.1745 16.5037 13.1745C20.023 13.1545 23.5423 13.1745 27.0515 13.1745C27.1423 14.2845 27.1625 15.4045 27.0515 16.5145C23.5322 16.5145 20.013 16.5345 16.5037 16.5145C16.0399 16.5145 15.929 16.6245 15.929 17.0845C15.9492 20.5745 15.9391 24.0645 15.929 27.5445C14.9912 27.7445 14.0331 27.6145 13.0852 27.6645C12.8936 27.6745 12.7323 27.6045 12.5608 27.5445C12.5608 24.0545 12.5407 20.5645 12.5608 17.0845C12.5608 16.6245 12.4399 16.5145 11.9861 16.5145C8.46678 16.5445 4.95759 16.5345 1.43827 16.5245Z" fill="#D80027"/>
<path d="M12.5608 2.1543C12.5608 5.6443 12.5406 9.1343 12.5608 12.6143C12.5608 13.0743 12.4398 13.1843 11.9861 13.1843C8.46675 13.1643 4.94747 13.1843 1.43823 13.1843C1.53907 12.6243 1.63984 12.0743 1.74068 11.5143C3.94908 11.5143 6.15746 11.5143 8.40619 11.5143C6.91376 10.0143 5.48188 8.5643 4.04996 7.1243C4.09029 6.9343 4.14066 6.7543 4.37259 6.7343C5.78435 8.1343 7.25668 9.47431 8.59785 10.9443C9.27348 11.6843 9.98938 11.4743 10.7961 11.5143C9.74736 10.4643 8.74903 9.47431 7.7608 8.47431C6.89358 7.6043 6.0264 6.7243 5.15917 5.8443C5.50203 5.4043 5.89527 5.0243 6.3793 4.7343C7.85156 6.1743 9.32393 7.6043 10.897 9.1443C10.897 6.8543 10.897 4.7143 10.897 2.5743C11.4012 2.2043 12.0163 2.3043 12.5608 2.1543Z" fill="#F0F0F0"/>
<path d="M27.0615 13.1843C23.5422 13.1843 20.0229 13.1643 16.5137 13.1843C16.0498 13.1843 15.939 13.0743 15.939 12.6143C15.9591 9.1243 15.939 5.6343 15.939 2.1543C16.4936 2.2643 17.0884 2.2343 17.5926 2.5643C17.5926 4.7143 17.5926 6.8743 17.5926 9.0943C19.1254 7.5943 20.5876 6.17429 22.0397 4.74429C22.2414 4.76429 22.3422 4.89431 22.433 5.05431C21.0313 6.46431 19.67 7.9243 18.1978 9.2543C17.4516 9.9243 17.6532 10.6343 17.6229 11.4443C18.6616 10.4243 19.6397 9.4543 20.6178 8.5043C21.5254 7.6143 22.433 6.7343 23.3406 5.8443C23.7843 6.2143 24.238 6.57431 24.4498 7.13431C23.0179 8.58431 21.586 10.0343 20.0936 11.5443C22.3221 11.5443 24.4801 11.5443 26.6381 11.5443C27.0112 12.0243 26.9103 12.6343 27.0615 13.1843Z" fill="#F0F0F0"/>
<path d="M1.43823 16.5244C4.95755 16.5244 8.47683 16.5444 11.9861 16.5244C12.4499 16.5244 12.5608 16.6344 12.5608 17.0944C12.5406 20.5844 12.5608 24.0744 12.5608 27.5544C12.0062 27.4044 11.3912 27.5044 10.897 27.1344C10.897 24.9844 10.897 22.8344 10.897 20.6844C10.8365 20.6544 10.7659 20.6244 10.7054 20.5944C10.5844 20.7544 10.4936 20.9344 10.3525 21.0744C9.03146 22.3744 7.71039 23.6744 6.3793 24.9744C6.23812 24.8644 6.04661 24.8144 5.96594 24.6244C7.38779 23.2144 8.76931 21.7444 10.2617 20.4044C10.9676 19.7644 10.9071 19.0844 10.8567 18.3044C10.5945 18.3644 10.4836 18.5444 10.3525 18.6844C8.62809 20.3844 6.89363 22.0844 5.16927 23.7844C4.65498 23.5244 4.24155 23.1544 4.04996 22.5944C5.50205 21.1644 6.95407 19.7344 8.50701 18.2044C6.13727 18.2044 3.93899 18.2044 1.74068 18.2044C1.63984 17.6344 1.53907 17.0844 1.43823 16.5244Z" fill="#F0F0F0"/>
<path d="M15.939 27.5647C15.939 24.0747 15.9591 20.5847 15.939 17.1047C15.939 16.6447 16.0599 16.5347 16.5137 16.5347C20.033 16.5547 23.5523 16.5347 27.0615 16.5347C26.9103 17.0847 27.0112 17.6947 26.6381 18.1847C24.47 18.1847 22.3019 18.1847 20.0633 18.1847C21.586 19.7147 23.0179 21.1547 24.4498 22.5947C24.4095 22.8247 24.2683 22.9547 24.0363 22.9747C22.6347 21.5947 21.1726 20.2547 19.8415 18.8147C19.1961 18.1147 18.5103 18.1747 17.7338 18.2247C17.7842 18.4847 17.9658 18.5947 18.1069 18.7247C19.8212 20.4347 21.5356 22.1447 23.2398 23.8647C22.9978 24.4047 22.5641 24.7447 22.0397 24.9747C20.5775 23.5547 19.1153 22.1347 17.5926 20.6547C17.5926 22.8647 17.5926 25.0047 17.5926 27.1447C17.0985 27.4847 16.4936 27.4447 15.939 27.5647Z" fill="#F0F0F0"/>
<path d="M1.74072 18.1943C3.93904 18.1943 6.13731 18.1943 8.50705 18.1943C6.95411 19.7243 5.5021 21.1543 4.05 22.5843C3.91891 22.5843 3.83821 22.5243 3.76762 22.4143C2.84997 21.1243 2.11383 19.7443 1.74072 18.1943Z" fill="#0153B4"/>
<path d="M6.37939 24.9747C7.7004 23.6747 9.03155 22.3847 10.3526 21.0747C10.4937 20.9347 10.5945 20.7547 10.7055 20.5947C10.766 20.6247 10.8366 20.6547 10.8971 20.6847C10.8971 22.8347 10.8971 24.9847 10.8971 27.1347C10.1913 27.2847 9.63654 26.8547 9.04159 26.6247C8.13403 26.2747 7.30714 25.7447 6.52059 25.1647C6.46008 25.1247 6.42981 25.0347 6.37939 24.9747Z" fill="#0153B4"/>
<path d="M4.05 7.12451C5.48193 8.56451 6.9138 10.0145 8.40624 11.5145C6.1575 11.5145 3.94912 11.5145 1.74072 11.5145C2.12391 9.99451 2.83986 8.61452 3.73734 7.33452C3.82809 7.22452 3.89874 7.13451 4.05 7.12451Z" fill="#0153B4"/>
<path d="M10.907 2.5744C10.907 4.7144 10.907 6.86441 10.907 9.14441C9.33391 7.60441 7.86167 6.1744 6.3894 4.7344C6.96419 4.1044 7.72055 3.73441 8.46677 3.36441C9.12223 3.04441 9.83811 2.8444 10.5238 2.5744C10.6448 2.5244 10.7759 2.5444 10.907 2.5744Z" fill="#0153B4"/>
<path d="M17.5928 27.1443C17.5928 25.0043 17.5928 22.8643 17.5928 20.6543C19.1155 22.1343 20.5777 23.5543 22.0399 24.9743C21.2331 25.7343 20.2651 26.2543 19.2567 26.6643C18.7323 26.8743 18.2281 27.2643 17.5928 27.1443Z" fill="#0153B4"/>
<path d="M22.0399 4.74468C20.5878 6.16468 19.1255 7.59469 17.5928 9.09469C17.5928 6.87469 17.5928 4.72469 17.5928 2.56469C18.097 2.50469 18.5004 2.79469 18.934 2.95469C20.0634 3.36469 21.1424 3.91468 22.0399 4.74468Z" fill="#0153B4"/>
<path d="M26.6383 11.5345C24.4803 11.5345 22.3223 11.5345 20.0938 11.5345C21.5862 10.0245 23.0181 8.57451 24.45 7.12451C25.1155 7.80451 25.5693 8.62452 25.9525 9.47452C26.2449 10.1345 26.5778 10.7945 26.6383 11.5345Z" fill="#0153B4"/>
<path d="M24.45 22.5843C23.0181 21.1443 21.5761 19.7043 20.0635 18.1743C22.3021 18.1743 24.4702 18.1743 26.6383 18.1743C26.4971 19.1843 26.0634 20.0843 25.5895 20.9543C25.2769 21.5343 24.9542 22.1343 24.45 22.5843Z" fill="#0153B4"/>
<path d="M5.16919 23.7744C6.89355 22.0744 8.61793 20.3744 10.3524 18.6744C10.4936 18.5344 10.6045 18.3644 10.8566 18.2944C10.8969 19.0744 10.9575 19.7644 10.2617 20.3944C8.76923 21.7444 7.39779 23.2044 5.96587 24.6144C5.56251 24.4644 5.19944 24.2744 5.16919 23.7744Z" fill="#D80027"/>
<path d="M5.15914 5.84473C6.02637 6.72473 6.89355 7.60473 7.76077 8.47473C8.749 9.46473 9.74733 10.4547 10.7961 11.5147C9.98934 11.4847 9.27345 11.6847 8.59782 10.9447C7.25665 9.48473 5.78432 8.13473 4.37256 6.73473C4.50365 6.32473 4.71544 5.98473 5.15914 5.84473Z" fill="#D80027"/>
<path d="M23.2398 23.8545C21.5256 22.1445 19.8112 20.4345 18.107 18.7145C17.9658 18.5745 17.7843 18.4745 17.7339 18.2145C18.5104 18.1645 19.1962 18.1046 19.8415 18.8046C21.1726 20.2446 22.6347 21.5845 24.0364 22.9645C24.0061 23.4845 23.623 23.6645 23.2398 23.8545Z" fill="#D80027"/>
<path d="M23.3406 5.84468C22.4331 6.73468 21.5254 7.61468 20.6179 8.50468C19.6397 9.46468 18.6616 10.4247 17.623 11.4447C17.6532 10.6347 17.4516 9.92469 18.1978 9.25468C19.6701 7.92468 21.0314 6.46469 22.433 5.05469C22.8566 5.17469 23.0684 5.54468 23.3406 5.84468Z" fill="#D80027"/>
<path d="M14.2146 27.5647C21.3766 27.5647 27.1826 21.8071 27.1826 14.7047C27.1826 7.60235 21.3766 1.84473 14.2146 1.84473C7.05255 1.84473 1.24658 7.60235 1.24658 14.7047C1.24658 21.8071 7.05255 27.5647 14.2146 27.5647Z" stroke="#F6F6FF" stroke-width="2" stroke-miterlimit="10"/>
</svg>
