<svg width="29" height="29" viewBox="0 0 29 29" fill="none" xmlns="http://www.w3.org/2000/svg">
<path d="M1.09009 16.1854C1.09009 16.1054 1.09009 16.0154 1.09009 15.9354C1.16068 15.9854 1.19103 15.9254 1.19103 15.8754C1.19103 15.8254 1.20101 15.7354 1.09009 15.7854C1.09009 14.9654 1.09009 14.1454 1.09009 13.3254C1.11026 13.3354 1.11031 13.3754 1.14056 13.3454C1.15064 13.3354 1.16075 13.3354 1.16075 13.3254C1.23133 13.0054 1.22124 12.6754 1.28175 12.3554C1.43301 11.6354 1.58425 10.9254 1.89686 10.2554C1.96745 10.2554 2.04809 10.2654 2.11868 10.2654C4.84137 10.2654 7.57412 10.2654 10.2968 10.2654C15.5909 10.2654 20.885 10.2654 26.1792 10.2654C26.1792 10.5954 26.3607 10.8654 26.4313 11.1754C26.5422 11.6754 26.7036 12.1754 26.754 12.6954C26.7843 12.9454 26.754 13.1954 26.8447 13.4354C26.8649 13.4854 26.8346 13.5754 26.9456 13.5254C26.9456 14.3254 26.9456 15.1254 26.9456 15.9254C26.8245 15.8954 26.8447 15.9754 26.8447 16.0454C26.8447 16.1854 26.8245 16.3254 26.7943 16.4554C26.6531 17.3854 26.4515 18.2954 26.1187 19.1854C26.0885 19.1854 26.0482 19.1854 26.0179 19.1854C18.2734 19.1854 10.5389 19.1854 2.79435 19.1954C2.49183 19.1954 2.18928 19.1854 1.87667 19.1954C1.57415 18.6154 1.47338 17.9754 1.32212 17.3554C1.24145 17.0254 1.10028 16.6954 1.20112 16.3354C1.25154 16.2554 1.20101 16.1654 1.09009 16.1854Z" fill="#FFDA44"/>
<path d="M1.89697 19.1951C2.19949 19.1851 2.51213 19.1951 2.81465 19.1951C10.5592 19.1851 18.2935 19.1851 26.0381 19.1851C26.0683 19.1851 26.1088 19.1851 26.139 19.1851C26.0684 19.3651 26.0179 19.5451 25.9373 19.7151C25.5742 20.4551 25.2214 21.2051 24.7474 21.8851C24.334 22.4751 23.9004 23.0551 23.3861 23.5551C22.8012 24.1351 22.2162 24.705 21.5003 25.1451C21.0162 25.4451 20.5423 25.7851 20.0381 26.0551C19.1911 26.5151 18.2936 26.8551 17.3658 27.1151C16.8011 27.2651 16.2264 27.355 15.6516 27.455C15.5911 27.465 15.5003 27.4351 15.5306 27.5551C14.502 27.5551 13.4734 27.5551 12.4448 27.5551C12.465 27.4251 12.3641 27.465 12.3036 27.455C11.8902 27.385 11.4667 27.335 11.0532 27.235C9.4297 26.845 7.93732 26.1751 6.57598 25.2251C5.53732 24.4951 4.61971 23.6451 3.83315 22.6451C3.01634 21.5951 2.35075 20.4551 1.89697 19.1951Z" fill="#D80027"/>
<path d="M26.1895 10.2653C20.8954 10.2653 15.6013 10.2653 10.3072 10.2653C7.58449 10.2653 4.85173 10.2653 2.12905 10.2653C2.05846 10.2653 1.97781 10.2553 1.90723 10.2553C2.02823 9.85528 2.19964 9.48528 2.39124 9.11528C3.22821 7.43528 4.36775 5.98528 5.84002 4.80528C6.97952 3.88528 8.21983 3.16528 9.60135 2.67528C10.5896 2.32528 11.598 2.06528 12.6467 2.00528C12.7072 2.00528 12.798 2.02527 12.7677 1.90527C13.6249 1.90527 14.482 1.90527 15.3492 1.90527C15.3089 2.00527 15.3795 1.99528 15.44 2.00528C15.6316 2.02528 15.8232 2.02528 16.0148 2.05528C17.2954 2.27528 18.5358 2.63528 19.7056 3.20528C21.3694 4.00528 22.7812 5.12527 23.961 6.51527C24.7576 7.45527 25.4031 8.49527 25.8972 9.62527C25.9778 9.84527 26.0282 10.0853 26.1895 10.2653Z" fill="#D80027"/>
<path d="M14.0381 27.6155C21.2002 27.6155 27.0062 21.8579 27.0062 14.7555C27.0062 7.65313 21.2002 1.89551 14.0381 1.89551C6.87605 1.89551 1.07007 7.65313 1.07007 14.7555C1.07007 21.8579 6.87605 27.6155 14.0381 27.6155Z" stroke="#F6F6FF" stroke-width="2" stroke-miterlimit="10"/>
</svg>
