<svg width="14" height="28" viewBox="0 0 14 28" fill="none" xmlns="http://www.w3.org/2000/svg">
<path d="M9.08002 27.2747C7.39002 27.2747 5.8 27.2747 4.13 27.2747C4.13 23.1847 4.13 19.1046 4.13 14.9646C2.72001 14.9646 1.37 14.9646 0 14.9646C0 13.3546 0 11.7946 0 10.1846C1.36 10.1846 2.7 10.1846 4.12 10.1846C4.12 9.55457 4.1 8.97454 4.12 8.40454C4.16 7.26454 4.09003 6.10463 4.28003 4.99463C4.76003 2.20463 6.73002 0.494463 9.65002 0.324463C11.06 0.244463 12.49 0.374541 13.94 0.404541C13.94 1.90454 13.94 3.29466 13.94 4.77466C13.42 4.77466 12.92 4.76466 12.42 4.77466C11.91 4.78466 11.4 4.7847 10.89 4.8147C9.78001 4.8847 9.15004 5.4647 9.10004 6.5647C9.05004 7.7347 9.09003 8.91455 9.09003 10.1646C10.66 10.1646 12.21 10.1646 13.82 10.1646C13.61 11.7946 13.41 13.3546 13.2 14.9646C11.83 14.9646 10.48 14.9646 9.08002 14.9646C9.08002 19.0846 9.08002 23.1547 9.08002 27.2747Z" fill="#01AFE4"/>
</svg>
