<svg width="37" height="40" viewBox="0 0 37 40" fill="none" xmlns="http://www.w3.org/2000/svg">
<path fill-rule="evenodd" clip-rule="evenodd" d="M11.1967 0.216309C11.9499 0.216309 12.5605 0.82692 12.5605 1.58015V3.84612H24.3521V1.58015C24.3521 0.82692 24.9627 0.216309 25.7159 0.216309C26.4692 0.216309 27.0798 0.82692 27.0798 1.58015V3.84612H31.1606C33.9186 3.84612 36.1543 6.08186 36.1543 8.83978V34.2485C36.1543 37.0064 33.9186 39.2421 31.1606 39.2421H5.75195C2.99403 39.2421 0.758301 37.0064 0.758301 34.2485V8.83978C0.758301 6.08186 2.99404 3.84612 5.75195 3.84612H9.83283V1.58015C9.83283 0.82692 10.4434 0.216309 11.1967 0.216309ZM9.83283 6.5738H5.75195C4.50049 6.5738 3.48598 7.58831 3.48598 8.83978V14.7356H33.4266V8.83978C33.4266 7.58831 32.4121 6.5738 31.1606 6.5738H27.0798V8.83977C27.0798 9.593 26.4692 10.2036 25.7159 10.2036C24.9627 10.2036 24.3521 9.593 24.3521 8.83977V6.5738H12.5605V8.83977C12.5605 9.593 11.9499 10.2036 11.1967 10.2036C10.4434 10.2036 9.83283 9.593 9.83283 8.83977V6.5738ZM33.4266 17.4632H3.48598V34.2485C3.48598 35.4999 4.50049 36.5145 5.75195 36.5145H31.1606C32.4121 36.5145 33.4266 35.4999 33.4266 34.2485V17.4632Z" fill="black"/>
</svg>
