<svg width="36" height="36" viewBox="0 0 36 36" fill="none" xmlns="http://www.w3.org/2000/svg">
<path fill-rule="evenodd" clip-rule="evenodd" d="M17.698 2.75893C9.43012 2.75893 2.72768 9.46137 2.72768 17.7293C2.72768 25.9971 9.43012 32.6996 17.698 32.6996C25.9659 32.6996 32.6683 25.9971 32.6683 17.7293C32.6683 9.46137 25.9659 2.75893 17.698 2.75893ZM0 17.7293C0 7.95492 7.92367 0.03125 17.698 0.03125C27.4723 0.03125 35.396 7.95492 35.396 17.7293C35.396 27.5036 27.4723 35.4273 17.698 35.4273C7.92367 35.4273 0 27.5036 0 17.7293ZM17.698 6.56492C18.4512 6.56492 19.0618 7.17553 19.0618 7.92875V16.8864L24.8416 19.7762C25.5153 20.1131 25.7884 20.9323 25.4515 21.606C25.1147 22.2797 24.2954 22.5528 23.6217 22.2159L17.0881 18.9491C16.626 18.7181 16.3342 18.2458 16.3342 17.7292V7.92875C16.3342 7.17553 16.9448 6.56492 17.698 6.56492Z" fill="black"/>
</svg>
