<svg width="36" height="40" viewBox="0 0 36 40" fill="none" xmlns="http://www.w3.org/2000/svg">
<path fill-rule="evenodd" clip-rule="evenodd" d="M9.03373 3.80838C11.3317 1.51045 14.4483 0.219482 17.6981 0.219482C20.9479 0.219482 24.0646 1.51045 26.3625 3.80838C28.6604 6.10632 29.9514 9.22299 29.9514 12.4728C29.9514 18.624 31.2677 22.4784 32.5072 24.7509C33.1289 25.8906 33.7387 26.6463 34.1716 27.1033C34.3884 27.3322 34.5618 27.4871 34.6714 27.5784C34.7262 27.6241 34.7651 27.6539 34.7855 27.6691C34.7932 27.6748 34.7982 27.6784 34.8005 27.6801C35.2923 28.0153 35.5104 28.6315 35.3376 29.2021C35.1634 29.7774 34.6333 30.1708 34.0323 30.1708H1.36394C0.762946 30.1708 0.232785 29.7774 0.0586253 29.2021C-0.114166 28.6314 0.103884 28.0153 0.595684 27.6801C0.598026 27.6784 0.603069 27.6747 0.610683 27.6691C0.631095 27.6539 0.669981 27.6241 0.724789 27.5784C0.834369 27.4871 1.00777 27.3322 1.2246 27.1033C1.65755 26.6463 2.26733 25.8906 2.889 24.7509C4.12856 22.4784 5.44483 18.624 5.44483 12.4728C5.44483 9.22299 6.73579 6.10632 9.03373 3.80838ZM4.43586 27.4431H30.9604C30.6826 27.0384 30.3967 26.578 30.1126 26.057C28.6298 23.3386 27.2237 19.0259 27.2237 12.4728C27.2237 9.94641 26.2201 7.52354 24.4337 5.73714C22.6473 3.95075 20.2245 2.94716 17.6981 2.94716C15.1718 2.94716 12.7489 3.95075 10.9625 5.73714C9.17609 7.52354 8.1725 9.94641 8.1725 12.4728C8.1725 19.0259 6.76641 23.3386 5.28361 26.057C4.99947 26.578 4.71357 27.0384 4.43586 27.4431ZM13.874 34.8868C14.5256 34.5089 15.3601 34.7307 15.7381 35.3822C15.9373 35.7256 16.2232 36.0106 16.5672 36.2088C16.9112 36.4069 17.3012 36.5112 17.6981 36.5112C18.0951 36.5112 18.4851 36.4069 18.8291 36.2088C19.1731 36.0106 19.459 35.7256 19.6582 35.3822C20.0362 34.7307 20.8707 34.5089 21.5223 34.8868C22.1738 35.2648 22.3956 36.0993 22.0176 36.7509C21.5787 37.5076 20.9486 38.1358 20.1905 38.5724C19.4325 39.009 18.573 39.2389 17.6981 39.2389C16.8233 39.2389 15.9638 39.009 15.2057 38.5724C14.4477 38.1358 13.8176 37.5076 13.3786 36.7509C13.0007 36.0993 13.2225 35.2648 13.874 34.8868Z" fill="black"/>
</svg>
