<svg width="28" height="28" viewBox="0 0 28 28" fill="none" xmlns="http://www.w3.org/2000/svg">
<path d="M14.234 27.5437C12.224 27.5437 10.2039 27.6037 8.19392 27.5237C6.14392 27.4437 4.28395 26.8037 2.79395 25.2837C1.31395 23.7637 0.683949 21.8835 0.663949 19.8435C0.613949 15.7235 0.553905 11.6036 0.743905 7.49363C0.943905 3.29363 3.89395 0.483516 8.10395 0.373516C12.204 0.263516 16.3039 0.263516 20.4039 0.373516C24.6439 0.493516 27.4839 3.28367 27.8039 7.53367C27.9539 9.46367 27.9139 11.4135 27.9039 13.3635C27.9039 15.6835 27.934 18.0037 27.794 20.3137C27.544 24.5637 24.6039 27.3737 20.3239 27.5337C18.2939 27.6037 16.264 27.5437 14.234 27.5437ZM14.2439 25.0835C16.2439 25.0835 18.234 25.1337 20.234 25.0637C23.094 24.9637 24.874 23.4035 25.294 20.6535C25.434 19.7435 25.4539 18.8035 25.4539 17.8835C25.4339 14.4435 25.4539 11.0037 25.3239 7.5637C25.2339 5.2337 23.8439 3.63348 21.7039 3.08348C21.1939 2.95348 20.6539 2.84349 20.1239 2.84349C16.2239 2.82349 12.3139 2.7535 8.41395 2.8535C5.30395 2.9335 3.31395 4.70348 3.22395 7.58348C3.09395 11.8435 3.11395 16.1035 3.22395 20.3635C3.27395 22.6535 4.66391 24.2535 6.74391 24.8235C7.29391 24.9735 7.8639 25.0735 8.4239 25.0835C10.3539 25.1035 12.3039 25.0835 14.2439 25.0835Z" fill="#01AFE4"/>
<path d="M7.23391 13.9336C7.24391 10.0436 10.3939 6.89359 14.2839 6.90359C18.1639 6.91359 21.3039 10.0736 21.3039 13.9636C21.2939 17.8536 18.1439 21.0037 14.2539 20.9937C10.3639 20.9837 7.22391 17.8236 7.23391 13.9336ZM9.70388 13.9236C9.69388 16.4436 11.7039 18.4937 14.2239 18.5137C16.7239 18.5437 18.8039 16.4937 18.8139 13.9937C18.8339 11.4437 16.7939 9.38356 14.2639 9.37356C11.7639 9.36356 9.71388 11.4136 9.70388 13.9236Z" fill="#01AFE4"/>
<path d="M23.2137 6.63364C23.2137 7.54364 22.4937 8.26378 21.5837 8.27378C20.6837 8.27378 19.9537 7.55366 19.9337 6.65366C19.9237 5.73366 20.6837 4.97374 21.5937 4.98374C22.4937 4.99374 23.2137 5.73364 23.2137 6.63364Z" fill="#01AFE4"/>
</svg>
