<svg width="28" height="28" viewBox="0 0 28 28" fill="none" xmlns="http://www.w3.org/2000/svg">
<path d="M0.589844 27.5645C0.989844 26.0745 1.37983 24.6644 1.75983 23.2444C1.97983 22.4444 2.38981 21.6343 2.36981 20.8343C2.33981 20.0743 1.84981 19.3443 1.55981 18.5943C-1.54019 10.4243 3.91983 1.40432 12.5798 0.384317C20.0198 -0.495683 26.6999 4.69428 27.6599 12.0943C28.6399 19.6543 23.0998 26.5645 15.4998 27.2845C12.9398 27.5245 10.5298 27.0444 8.20984 25.9544C7.92984 25.8244 7.54982 25.7843 7.24982 25.8543C5.18982 26.3643 3.14985 26.9244 1.09985 27.4544C0.959854 27.4944 0.809844 27.5245 0.589844 27.5645ZM3.83984 24.3743C5.10984 24.0443 6.23981 23.7644 7.36981 23.4344C7.85981 23.2944 8.23983 23.3343 8.69983 23.5943C10.9498 24.8843 13.3798 25.3644 15.9298 24.9344C22.3198 23.8544 26.3499 18.1645 25.2999 11.7845C24.3199 5.83446 18.2398 1.59441 12.3198 2.73441C4.36982 4.26441 0.529839 12.8945 4.70984 19.8145C4.84984 20.0545 4.89984 20.4244 4.83984 20.6944C4.52984 21.8844 4.18984 23.0643 3.83984 24.3743Z" fill="#01AFE4"/>
<path d="M17.7898 20.3443C16.3498 20.2543 15.0798 19.7343 13.8798 19.0943C11.2598 17.6943 9.3398 15.5744 7.9398 12.9944C6.9498 11.1544 7.19985 9.42428 8.41985 8.09428C8.98985 7.47428 9.66985 7.53431 10.3598 7.62431C10.5298 7.64431 10.7199 7.90428 10.7999 8.09428C11.1799 8.95428 11.5498 9.8344 11.8798 10.7144C11.9498 10.9144 11.8998 11.2043 11.8098 11.3943C11.6598 11.6943 11.4498 11.9844 11.2098 12.2144C10.7598 12.6444 10.8398 13.0244 11.1598 13.5044C12.2498 15.1544 13.6798 16.3643 15.4998 17.1243C15.8498 17.2743 16.1098 17.2344 16.3398 16.9244C16.6298 16.5544 16.9498 16.2045 17.2298 15.8145C17.4698 15.4845 17.7298 15.3745 18.0998 15.5545C18.9898 15.9845 19.8898 16.3843 20.7498 16.8443C20.9098 16.9343 21.0498 17.2244 21.0598 17.4344C21.0998 18.7844 20.1598 19.8744 18.6898 20.2144C18.3898 20.2944 18.0698 20.3043 17.7898 20.3443Z" fill="#01AFE4"/>
</svg>
